<svg width="500" height="480" viewBox="0 0 500 480" fill="none" xmlns="http://www.w3.org/2000/svg">
<path opacity="0.05" d="M498 310H332C330.895 310 330 310.895 330 312V478C330 479.105 330.895 480 332 480H498C499.105 480 500 479.105 500 478V312C500 310.895 499.105 310 498 310Z" fill="#4A6CF7"/>
<path d="M438.454 346.892L363.941 365.35C362.869 365.616 362.215 366.7 362.481 367.772L380.939 442.285C381.204 443.358 382.289 444.011 383.361 443.746L457.874 425.288C458.946 425.022 459.6 423.938 459.334 422.866L440.877 348.353C440.611 347.281 439.527 346.627 438.454 346.892Z" fill="#4A6CF7"/>
<path d="M412.572 402.039C411.235 402.37 409.822 402.156 408.643 401.445C407.464 400.734 406.615 399.584 406.284 398.247C405.818 396.366 406.435 394.466 407.718 393.239L421.691 379.757L416.388 398.152C415.956 400.006 414.538 401.552 412.572 402.039ZM407.162 380.2C410.203 379.447 413.25 379.583 416.061 380.349L413.037 383.256C411.434 383.047 409.675 383.144 407.995 383.56C404.43 384.443 401.363 386.705 399.467 389.85C397.571 392.995 397.002 396.764 397.884 400.328C398.804 404.041 401.131 407.03 404.167 408.846L404.183 408.842C405.001 409.334 405.263 410.393 404.77 411.21C404.277 412.028 403.202 412.294 402.389 411.818C398.595 409.531 395.673 405.797 394.525 401.16C393.421 396.705 394.132 391.994 396.502 388.063C398.873 384.132 402.707 381.304 407.162 380.2ZM428.123 392.838C429.271 397.474 428.43 402.14 426.143 405.934C425.646 406.735 424.587 406.997 423.77 406.504C422.952 406.011 422.69 404.953 423.183 404.135C425.016 401.096 425.683 397.382 424.763 393.67C424.347 391.99 423.612 390.389 422.649 389.023L423.808 384.992C425.826 387.166 427.365 389.78 428.123 392.838Z" fill="white"/>
<path d="M298 0H2C0.89543 0 0 0.89543 0 2V478C0 479.105 0.89543 480 2 480H298C299.105 480 300 479.105 300 478V2C300 0.89543 299.105 0 298 0Z" fill="#151A3E" fill-opacity="0.9"/>
<path opacity="0.35" d="M263 35H37C35.8954 35 35 35.8954 35 37V167C35 168.105 35.8954 169 37 169H263C264.105 169 265 168.105 265 167V37C265 35.8954 264.105 35 263 35Z" fill="#4A6CF7"/>
<path opacity="0.1" d="M263 194H37C35.8954 194 35 194.895 35 196V219C35 220.105 35.8954 221 37 221H263C264.105 221 265 220.105 265 219V196C265 194.895 264.105 194 263 194Z" fill="white"/>
<path opacity="0.1" d="M170 246H37C35.8954 246 35 246.895 35 248V443C35 444.105 35.8954 445 37 445H170C171.105 445 172 444.105 172 443V248C172 246.895 171.105 246 170 246Z" fill="white"/>
<path opacity="0.08" d="M263 246H189C187.895 246 187 246.895 187 248V308C187 309.105 187.895 310 189 310H263C264.105 310 265 309.105 265 308V248C265 246.895 264.105 246 263 246Z" fill="white"/>
<path opacity="0.2" d="M263 322H189C187.895 322 187 322.895 187 324V375C187 376.105 187.895 377 189 377H263C264.105 377 265 376.105 265 375V324C265 322.895 264.105 322 263 322Z" fill="white"/>
<path opacity="0.2" d="M263 389H189C187.895 389 187 389.895 187 391V443C187 444.105 187.895 445 189 445H263C264.105 445 265 444.105 265 443V391C265 389.895 264.105 389 263 389Z" fill="#4A6CF7"/>
<path d="M377.423 371.629C377.607 371.835 377.923 371.852 378.129 371.667C378.334 371.483 378.351 371.167 378.167 370.961L377.423 371.629ZM378.835 235.674C379.01 235.46 378.979 235.145 378.766 234.97C378.552 234.795 378.237 234.826 378.062 235.039L378.835 235.674ZM377.416 235.832C377.242 236.047 377.275 236.362 377.49 236.535C377.705 236.709 378.02 236.676 378.193 236.461L377.416 235.832ZM376.938 238.036C377.109 237.818 377.071 237.504 376.854 237.333C376.636 237.163 376.322 237.201 376.152 237.418L376.938 238.036ZM374.924 239.004C374.757 239.223 374.799 239.537 375.019 239.704C375.239 239.872 375.552 239.829 375.72 239.61L374.924 239.004ZM374.533 241.19C374.697 240.968 374.65 240.655 374.428 240.491C374.206 240.327 373.893 240.374 373.729 240.596L374.533 241.19ZM372.531 242.242C372.37 242.467 372.422 242.779 372.647 242.94C372.871 243.101 373.184 243.049 373.344 242.824L372.531 242.242ZM372.194 244.458C372.352 244.231 372.295 243.919 372.068 243.762C371.841 243.605 371.529 243.661 371.372 243.888L372.194 244.458ZM370.252 245.533C370.098 245.763 370.16 246.073 370.389 246.227C370.618 246.381 370.929 246.319 371.083 246.09L370.252 245.533ZM369.976 247.772C370.125 247.54 370.059 247.231 369.827 247.081C369.595 246.931 369.286 246.997 369.136 247.229L369.976 247.772ZM368.054 248.933C367.908 249.167 367.979 249.476 368.214 249.622C368.448 249.768 368.757 249.696 368.903 249.462L368.054 248.933ZM367.869 251.15C368.012 250.913 367.935 250.606 367.698 250.464C367.462 250.322 367.154 250.398 367.012 250.635L367.869 251.15ZM365.985 252.378C365.847 252.617 365.929 252.923 366.168 253.061C366.407 253.199 366.713 253.117 366.851 252.878L365.985 252.378ZM365.864 254.621C365.998 254.38 365.911 254.075 365.67 253.941C365.428 253.807 365.124 253.894 364.99 254.136L365.864 254.621ZM364.036 255.892C363.906 256.136 363.998 256.438 364.242 256.568C364.486 256.698 364.788 256.605 364.918 256.362L364.036 255.892ZM363.993 258.138C364.118 257.892 364.021 257.591 363.775 257.465C363.528 257.34 363.227 257.438 363.102 257.684L363.993 258.138ZM362.201 259.492C362.08 259.741 362.183 260.04 362.432 260.161C362.68 260.282 362.979 260.178 363.1 259.93L362.201 259.492ZM362.249 261.719C362.366 261.468 362.257 261.171 362.006 261.055C361.756 260.938 361.459 261.047 361.342 261.298L362.249 261.719ZM360.507 263.14C360.396 263.393 360.51 263.688 360.763 263.8C361.015 263.911 361.31 263.797 361.422 263.544L360.507 263.14ZM360.631 265.381C360.738 265.126 360.618 264.833 360.363 264.726C360.109 264.619 359.816 264.739 359.709 264.994L360.631 265.381ZM358.953 266.843C358.851 267.1 358.977 267.391 359.233 267.493C359.49 267.595 359.781 267.469 359.883 267.213L358.953 266.843ZM359.159 269.086C359.256 268.828 359.125 268.54 358.866 268.443C358.608 268.346 358.32 268.477 358.223 268.735L359.159 269.086ZM357.534 270.629C357.442 270.889 357.578 271.175 357.839 271.266C358.099 271.358 358.385 271.222 358.477 270.961L357.534 270.629ZM357.836 272.836C357.922 272.574 357.78 272.291 357.518 272.204C357.256 272.117 356.973 272.26 356.886 272.522L357.836 272.836ZM356.268 274.455C356.186 274.718 356.334 274.998 356.598 275.08C356.862 275.161 357.142 275.014 357.223 274.75L356.268 274.455ZM356.655 276.657C356.731 276.391 356.578 276.114 356.312 276.038C356.047 275.962 355.77 276.116 355.694 276.381L356.655 276.657ZM355.158 278.32C355.088 278.587 355.247 278.861 355.513 278.931C355.78 279.002 356.054 278.843 356.125 278.576L355.158 278.32ZM355.631 280.517C355.697 280.248 355.532 279.978 355.264 279.913C354.995 279.847 354.725 280.012 354.66 280.28L355.631 280.517ZM354.205 282.232C354.145 282.502 354.315 282.769 354.585 282.829C354.855 282.889 355.122 282.719 355.181 282.449L354.205 282.232ZM354.768 284.408C354.822 284.137 354.646 283.874 354.376 283.819C354.105 283.765 353.841 283.941 353.787 284.211L354.768 284.408ZM353.412 286.191C353.363 286.463 353.544 286.723 353.816 286.772C354.087 286.82 354.347 286.64 354.396 286.368L353.412 286.191ZM354.066 288.327C354.109 288.054 353.923 287.798 353.65 287.755C353.377 287.712 353.121 287.898 353.078 288.171L354.066 288.327ZM352.783 290.174C352.746 290.447 352.938 290.699 353.211 290.737C353.485 290.774 353.737 290.583 353.774 290.309L352.783 290.174ZM353.526 292.281C353.558 292.006 353.361 291.758 353.087 291.727C352.812 291.695 352.564 291.892 352.533 292.166L353.526 292.281ZM352.322 294.174C352.296 294.449 352.498 294.693 352.773 294.719C353.048 294.745 353.292 294.543 353.317 294.268L352.322 294.174ZM353.151 296.257C353.171 295.981 352.964 295.742 352.689 295.722C352.413 295.701 352.174 295.908 352.153 296.184L353.151 296.257ZM352.027 298.188C352.013 298.464 352.224 298.699 352.5 298.714C352.776 298.728 353.011 298.517 353.026 298.241L352.027 298.188ZM352.941 300.241C352.95 299.965 352.733 299.734 352.457 299.725C352.181 299.717 351.95 299.933 351.942 300.209L352.941 300.241ZM351.899 302.217C351.895 302.493 352.117 302.719 352.393 302.722C352.669 302.725 352.895 302.504 352.898 302.228L351.899 302.217ZM352.897 304.228C352.894 303.952 352.668 303.73 352.392 303.733C352.116 303.736 351.894 303.962 351.897 304.238L352.897 304.228ZM351.936 306.251C351.945 306.527 352.175 306.744 352.451 306.736C352.727 306.728 352.944 306.497 352.936 306.221L351.936 306.251ZM353.016 308.212C353.002 307.937 352.767 307.724 352.491 307.738C352.216 307.752 352.003 307.987 352.017 308.263L353.016 308.212ZM352.139 310.278C352.158 310.553 352.398 310.761 352.673 310.741C352.948 310.722 353.156 310.483 353.137 310.207L352.139 310.278ZM353.297 312.188C353.272 311.913 353.028 311.71 352.753 311.735C352.478 311.76 352.276 312.003 352.301 312.278L353.297 312.188ZM352.504 314.291C352.535 314.566 352.782 314.764 353.056 314.733C353.331 314.702 353.528 314.455 353.498 314.181L352.504 314.291ZM353.737 316.155C353.701 315.881 353.45 315.689 353.177 315.725C352.903 315.76 352.71 316.012 352.746 316.285L353.737 316.155ZM353.029 318.286C353.07 318.559 353.325 318.746 353.598 318.705C353.871 318.664 354.059 318.409 354.018 318.136L353.029 318.286ZM354.335 320.103C354.289 319.831 354.03 319.648 353.758 319.695C353.486 319.742 353.303 320 353.35 320.272L354.335 320.103ZM353.71 322.255C353.762 322.526 354.024 322.704 354.295 322.652C354.566 322.6 354.744 322.338 354.692 322.067L353.71 322.255ZM355.087 324.024C355.03 323.754 354.764 323.581 354.494 323.639C354.224 323.696 354.052 323.961 354.109 324.231L355.087 324.024ZM354.544 326.194C354.607 326.463 354.875 326.631 355.144 326.569C355.413 326.506 355.581 326.238 355.518 325.969L354.544 326.194ZM355.989 327.913C355.921 327.645 355.649 327.483 355.382 327.55C355.114 327.618 354.952 327.889 355.019 328.157L355.989 327.913ZM355.528 330.098C355.6 330.365 355.875 330.522 356.141 330.45C356.408 330.377 356.565 330.102 356.493 329.836L355.528 330.098ZM357.037 331.764C356.959 331.499 356.682 331.347 356.417 331.425C356.152 331.502 356 331.78 356.077 332.045L357.037 331.764ZM356.657 333.964C356.74 334.227 357.02 334.374 357.284 334.292C357.547 334.209 357.694 333.929 357.612 333.665L356.657 333.964ZM358.228 335.574C358.141 335.312 357.858 335.171 357.596 335.258C357.334 335.345 357.192 335.628 357.279 335.89L358.228 335.574ZM357.93 337.788C358.023 338.048 358.308 338.184 358.569 338.092C358.829 338 358.965 337.715 358.873 337.454L357.93 337.788ZM359.559 339.338C359.462 339.079 359.174 338.948 358.915 339.045C358.656 339.142 358.525 339.43 358.622 339.688L359.559 339.338ZM359.343 341.561C359.444 341.818 359.734 341.944 359.991 341.843C360.248 341.741 360.374 341.451 360.273 341.194L359.343 341.561ZM361.026 343.051C360.92 342.796 360.627 342.675 360.372 342.781C360.117 342.887 359.996 343.18 360.103 343.435L361.026 343.051ZM360.89 345.28C361.001 345.533 361.296 345.649 361.549 345.538C361.802 345.427 361.917 345.132 361.807 344.879L360.89 345.28ZM362.627 346.708C362.511 346.457 362.214 346.347 361.963 346.462C361.713 346.578 361.603 346.875 361.718 347.126L362.627 346.708ZM362.571 348.94C362.691 349.189 362.99 349.293 363.239 349.174C363.488 349.054 363.592 348.755 363.472 348.506L362.571 348.94ZM364.359 350.305C364.235 350.059 363.934 349.96 363.687 350.084C363.441 350.208 363.342 350.509 363.466 350.756L364.359 350.305ZM364.383 352.535C364.512 352.779 364.814 352.873 365.059 352.744C365.303 352.615 365.397 352.313 365.268 352.069L364.383 352.535ZM366.221 353.837C366.088 353.595 365.784 353.507 365.542 353.641C365.3 353.774 365.212 354.078 365.345 354.32L366.221 353.837ZM366.328 356.064C366.465 356.304 366.771 356.386 367.01 356.248C367.25 356.111 367.332 355.805 367.194 355.566L366.328 356.064ZM368.212 357.296C368.07 357.06 367.763 356.983 367.526 357.125C367.289 357.268 367.213 357.575 367.355 357.811L368.212 357.296ZM368.406 359.524C368.553 359.758 368.862 359.828 369.096 359.681C369.33 359.535 369.4 359.226 369.254 358.992L368.406 359.524ZM370.332 360.674C370.18 360.443 369.87 360.378 369.639 360.53C369.408 360.681 369.344 360.991 369.495 361.222L370.332 360.674ZM370.619 362.9C370.775 363.128 371.086 363.186 371.314 363.03C371.542 362.874 371.6 362.563 371.444 362.335L370.619 362.9ZM372.579 363.957C372.418 363.732 372.106 363.68 371.882 363.841C371.657 364.002 371.605 364.314 371.766 364.539L372.579 363.957ZM372.967 366.179C373.132 366.4 373.446 366.445 373.667 366.279C373.888 366.113 373.933 365.8 373.767 365.579L372.967 366.179ZM374.979 367.158C374.808 366.941 374.494 366.903 374.277 367.074C374.06 367.245 374.022 367.559 374.193 367.776L374.979 367.158ZM375.452 369.339C375.628 369.551 375.943 369.581 376.156 369.405C376.368 369.23 376.398 368.914 376.223 368.702L375.452 369.339ZM377.521 370.232C377.34 370.023 377.024 370.002 376.816 370.183C376.608 370.365 376.586 370.681 376.768 370.889L377.521 370.232ZM378.062 235.039C377.845 235.304 377.63 235.568 377.416 235.832L378.193 236.461C378.406 236.199 378.619 235.936 378.835 235.674L378.062 235.039ZM376.152 237.418C375.736 237.946 375.327 238.475 374.924 239.004L375.72 239.61C376.12 239.085 376.526 238.56 376.938 238.036L376.152 237.418ZM373.729 240.596C373.323 241.145 372.924 241.694 372.531 242.242L373.344 242.824C373.734 242.28 374.13 241.735 374.533 241.19L373.729 240.596ZM371.372 243.888C370.992 244.437 370.619 244.985 370.252 245.533L371.083 246.09C371.447 245.546 371.817 245.002 372.194 244.458L371.372 243.888ZM369.136 247.229C368.768 247.797 368.408 248.365 368.054 248.933L368.903 249.462C369.254 248.899 369.611 248.336 369.976 247.772L369.136 247.229ZM367.012 250.635C366.663 251.216 366.321 251.797 365.985 252.378L366.851 252.878C367.184 252.302 367.523 251.726 367.869 251.15L367.012 250.635ZM364.99 254.136C364.665 254.722 364.347 255.307 364.036 255.892L364.918 256.362C365.227 255.782 365.542 255.202 365.864 254.621L364.99 254.136ZM363.102 257.684C362.795 258.287 362.494 258.89 362.201 259.492L363.1 259.93C363.391 259.333 363.688 258.736 363.993 258.138L363.102 257.684ZM361.342 261.298C361.057 261.912 360.778 262.527 360.507 263.14L361.422 263.544C361.691 262.937 361.966 262.328 362.249 261.719L361.342 261.298ZM359.709 264.994C359.45 265.611 359.198 266.228 358.953 266.843L359.883 267.213C360.125 266.603 360.374 265.992 360.631 265.381L359.709 264.994ZM358.223 268.735C357.986 269.367 357.756 269.998 357.534 270.629L358.477 270.961C358.697 270.337 358.924 269.712 359.159 269.086L358.223 268.735ZM356.886 272.522C356.673 273.167 356.467 273.811 356.268 274.455L357.223 274.75C357.42 274.113 357.624 273.475 357.836 272.836L356.886 272.522ZM355.694 276.381C355.508 277.028 355.33 277.675 355.158 278.32L356.125 278.576C356.294 277.938 356.471 277.298 356.655 276.657L355.694 276.381ZM354.66 280.28C354.501 280.932 354.349 281.583 354.205 282.232L355.181 282.449C355.324 281.806 355.474 281.162 355.631 280.517L354.66 280.28ZM353.787 284.211C353.655 284.873 353.529 285.533 353.412 286.191L354.396 286.368C354.513 285.716 354.636 285.063 354.768 284.408L353.787 284.211ZM353.078 288.171C352.973 288.84 352.874 289.508 352.783 290.174L353.774 290.309C353.864 289.65 353.961 288.989 354.066 288.327L353.078 288.171ZM352.533 292.166C352.455 292.837 352.385 293.507 352.322 294.174L353.317 294.268C353.38 293.608 353.449 292.945 353.526 292.281L352.533 292.166ZM352.153 296.184C352.104 296.854 352.062 297.522 352.027 298.188L353.026 298.241C353.06 297.582 353.102 296.92 353.151 296.257L352.153 296.184ZM351.942 300.209C351.92 300.881 351.906 301.55 351.899 302.217L352.898 302.228C352.906 301.568 352.92 300.906 352.941 300.241L351.942 300.209ZM351.897 304.238C351.903 304.911 351.916 305.583 351.936 306.251L352.936 306.221C352.916 305.559 352.903 304.895 352.897 304.228L351.897 304.238ZM352.017 308.263C352.051 308.937 352.092 309.609 352.139 310.278L353.137 310.207C353.09 309.545 353.049 308.88 353.016 308.212L352.017 308.263ZM352.301 312.278C352.362 312.952 352.43 313.623 352.504 314.291L353.498 314.181C353.424 313.519 353.357 312.855 353.297 312.188L352.301 312.278ZM352.746 316.285C352.834 316.956 352.928 317.622 353.029 318.286L354.018 318.136C353.918 317.479 353.825 316.819 353.737 316.155L352.746 316.285ZM353.35 320.272C353.464 320.937 353.584 321.598 353.71 322.255L354.692 322.067C354.567 321.416 354.448 320.761 354.335 320.103L353.35 320.272ZM354.109 324.231C354.248 324.89 354.393 325.544 354.544 326.194L355.518 325.969C355.369 325.324 355.225 324.676 355.087 324.024L354.109 324.231ZM355.019 328.157C355.183 328.809 355.353 329.456 355.528 330.098L356.493 329.836C356.319 329.199 356.151 328.558 355.989 327.913L355.019 328.157ZM356.077 332.045C356.265 332.689 356.459 333.329 356.657 333.964L357.612 333.665C357.415 333.036 357.223 332.403 357.037 331.764L356.077 332.045ZM357.279 335.89C357.492 336.528 357.709 337.16 357.93 337.788L358.873 337.454C358.654 336.833 358.438 336.206 358.228 335.574L357.279 335.89ZM358.622 339.688C358.858 340.318 359.098 340.943 359.343 341.561L360.273 341.194C360.03 340.581 359.792 339.962 359.559 339.338L358.622 339.688ZM360.103 343.435C360.361 344.056 360.624 344.671 360.89 345.28L361.807 344.879C361.542 344.276 361.282 343.666 361.026 343.051L360.103 343.435ZM361.718 347.126C361.999 347.737 362.283 348.342 362.571 348.94L363.472 348.506C363.187 347.914 362.905 347.314 362.627 346.708L361.718 347.126ZM363.466 350.756C363.769 351.356 364.075 351.949 364.383 352.535L365.268 352.069C364.962 351.488 364.659 350.901 364.359 350.305L363.466 350.756ZM365.345 354.32C365.67 354.91 365.998 355.491 366.328 356.064L367.194 355.566C366.868 354.998 366.543 354.422 366.221 353.837L365.345 354.32ZM367.355 357.811C367.704 358.392 368.054 358.962 368.406 359.524L369.254 358.992C368.905 358.436 368.558 357.871 368.212 357.296L367.355 357.811ZM369.495 361.222C369.869 361.792 370.244 362.352 370.619 362.9L371.444 362.335C371.073 361.792 370.702 361.238 370.332 360.674L369.495 361.222ZM371.766 364.539C372.166 365.098 372.567 365.645 372.967 366.179L373.767 365.579C373.372 365.051 372.975 364.511 372.579 363.957L371.766 364.539ZM374.193 367.776C374.614 368.312 375.034 368.833 375.452 369.339L376.223 368.702C375.81 368.202 375.395 367.688 374.979 367.158L374.193 367.776ZM376.768 370.889C376.987 371.14 377.205 371.387 377.423 371.629L378.167 370.961C377.953 370.723 377.737 370.479 377.521 370.232L376.768 370.889Z" fill="url(#paint0_linear_73_50)"/>
<path d="M375.753 233.513L380.883 233V237.617" stroke="url(#paint1_linear_73_50)" stroke-linecap="round" stroke-linejoin="round" stroke-dasharray="2 2"/>
<path d="M498 0H332C330.895 0 330 0.89543 330 2V278C330 279.105 330.895 280 332 280H498C499.105 280 500 279.105 500 278V2C500 0.89543 499.105 0 498 0Z" fill="#0C133E" fill-opacity="0.6"/>
<path d="M443.236 213H393.764C388.372 213 384 217.477 384 223C384 228.523 388.372 233 393.764 233H443.236C448.628 233 453 228.523 453 223C453 217.477 448.628 213 443.236 213Z" fill="#36A269"/>
<path d="M429.686 209.334C429.501 209.539 429.185 209.557 428.98 209.372C428.774 209.188 428.757 208.872 428.941 208.666L429.686 209.334ZM428.383 96.2767C428.208 96.0633 428.239 95.7482 428.453 95.573C428.666 95.3978 428.981 95.4287 429.156 95.6422L428.383 96.2767ZM429.797 96.4296C429.971 96.6445 429.937 96.9593 429.722 97.1327C429.507 97.3061 429.192 97.2724 429.019 97.0575L429.797 96.4296ZM430.257 98.619C430.087 98.4011 430.126 98.087 430.344 97.9173C430.562 97.7476 430.876 97.7867 431.046 98.0046L430.257 98.619ZM432.25 99.5795C432.416 99.8003 432.372 100.114 432.151 100.28C431.93 100.446 431.617 100.401 431.451 100.18L432.25 99.5795ZM432.631 101.781C432.469 101.557 432.519 101.244 432.743 101.082C432.967 100.921 433.279 100.971 433.441 101.195L432.631 101.781ZM434.601 102.83C434.758 103.056 434.702 103.368 434.476 103.525C434.249 103.683 433.937 103.627 433.78 103.401L434.601 102.83ZM434.884 105.019C434.73 104.79 434.792 104.479 435.021 104.326C435.251 104.172 435.562 104.234 435.715 104.464L434.884 105.019ZM436.82 106.153C436.969 106.385 436.901 106.694 436.669 106.843C436.436 106.992 436.127 106.925 435.978 106.692L436.82 106.153ZM437.028 108.367C436.884 108.132 436.958 107.824 437.193 107.68C437.428 107.535 437.736 107.609 437.881 107.844L437.028 108.367ZM438.904 109.552C439.044 109.79 438.964 110.096 438.726 110.236C438.487 110.376 438.181 110.296 438.041 110.057L438.904 109.552ZM439.031 111.786C438.896 111.545 438.982 111.241 439.223 111.106C439.465 110.971 439.769 111.058 439.904 111.299L439.031 111.786ZM440.854 113.043C440.984 113.287 440.891 113.59 440.648 113.719C440.404 113.849 440.101 113.756 439.971 113.513L440.854 113.043ZM440.886 115.278C440.762 115.032 440.861 114.731 441.107 114.607C441.354 114.482 441.654 114.581 441.779 114.828L440.886 115.278ZM442.66 116.623C442.779 116.873 442.674 117.171 442.424 117.29C442.175 117.409 441.877 117.303 441.758 117.054L442.66 116.623ZM442.587 118.842C442.474 118.59 442.586 118.294 442.838 118.18C443.089 118.067 443.386 118.179 443.499 118.431L442.587 118.842ZM444.305 120.274C444.413 120.528 444.294 120.821 444.04 120.929C443.785 121.037 443.492 120.918 443.384 120.664L444.305 120.274ZM444.13 122.481C444.028 122.224 444.153 121.934 444.41 121.832C444.667 121.73 444.957 121.855 445.059 122.112L444.13 122.481ZM445.781 123.992C445.877 124.25 445.745 124.538 445.486 124.634C445.228 124.73 444.94 124.598 444.844 124.339L445.781 123.992ZM445.508 126.197C445.418 125.936 445.557 125.651 445.818 125.561C446.079 125.471 446.364 125.61 446.453 125.871L445.508 126.197ZM447.083 127.773C447.167 128.036 447.022 128.317 446.759 128.401C446.495 128.485 446.214 128.339 446.13 128.076L447.083 127.773ZM446.708 129.969C446.631 129.704 446.783 129.426 447.048 129.349C447.313 129.271 447.59 129.424 447.668 129.689L446.708 129.969ZM448.204 131.612C448.275 131.878 448.116 132.152 447.85 132.223C447.583 132.294 447.309 132.136 447.238 131.869L448.204 131.612ZM447.725 133.792C447.66 133.524 447.825 133.254 448.094 133.189C448.363 133.125 448.632 133.29 448.697 133.559L447.725 133.792ZM449.138 135.501C449.196 135.771 449.024 136.037 448.754 136.095C448.484 136.153 448.218 135.981 448.16 135.711L449.138 135.501ZM448.553 137.659C448.502 137.387 448.68 137.126 448.952 137.075C449.223 137.023 449.485 137.202 449.536 137.473L448.553 137.659ZM449.881 139.435C449.925 139.707 449.741 139.964 449.468 140.009C449.195 140.053 448.938 139.868 448.894 139.596L449.881 139.435ZM449.19 141.561C449.152 141.287 449.343 141.035 449.617 140.997C449.89 140.96 450.143 141.151 450.18 141.424L449.19 141.561ZM450.428 143.403C450.459 143.678 450.262 143.925 449.988 143.956C449.713 143.987 449.466 143.79 449.435 143.515L450.428 143.403ZM449.632 145.49C449.608 145.215 449.812 144.972 450.087 144.948C450.362 144.924 450.605 145.127 450.629 145.403L449.632 145.49ZM450.778 147.393C450.795 147.669 450.586 147.906 450.31 147.924C450.035 147.941 449.797 147.732 449.78 147.456L450.778 147.393ZM449.88 149.436C449.869 149.16 450.084 148.928 450.36 148.917C450.636 148.907 450.868 149.122 450.879 149.398L449.88 149.436ZM450.93 151.395C450.933 151.671 450.713 151.898 450.436 151.902C450.16 151.905 449.934 151.684 449.93 151.408L450.93 151.395ZM449.932 153.39C449.935 153.114 450.161 152.893 450.437 152.896C450.713 152.899 450.935 153.125 450.932 153.401L449.932 153.39ZM450.884 155.399C450.875 155.675 450.643 155.89 450.367 155.88C450.091 155.871 449.875 155.639 449.885 155.363L450.884 155.399ZM449.79 157.343C449.807 157.067 450.044 156.857 450.319 156.873C450.595 156.89 450.805 157.127 450.788 157.403L449.79 157.343ZM450.644 159.395C450.621 159.67 450.379 159.874 450.104 159.851C449.829 159.828 449.625 159.586 449.648 159.311L450.644 159.395ZM449.457 161.284C449.487 161.009 449.734 160.811 450.008 160.841C450.283 160.871 450.481 161.117 450.451 161.392L449.457 161.284ZM450.212 163.374C450.176 163.647 449.925 163.84 449.651 163.804C449.377 163.767 449.185 163.516 449.221 163.242L450.212 163.374ZM448.937 165.206C448.98 164.933 449.236 164.746 449.508 164.789C449.781 164.832 449.968 165.088 449.925 165.361L448.937 165.206ZM449.593 167.327C449.544 167.599 449.284 167.779 449.012 167.73C448.741 167.681 448.56 167.421 448.609 167.149L449.593 167.327ZM448.234 169.099C448.289 168.829 448.553 168.654 448.824 168.71C449.094 168.765 449.269 169.029 449.213 169.3L448.234 169.099ZM448.791 171.25C448.729 171.519 448.461 171.687 448.192 171.626C447.923 171.564 447.754 171.296 447.816 171.027L448.791 171.25ZM447.352 172.956C447.419 172.689 447.691 172.526 447.959 172.594C448.227 172.662 448.389 172.933 448.321 173.201L447.352 172.956ZM447.81 175.132C447.736 175.399 447.461 175.555 447.195 175.481C446.929 175.407 446.773 175.132 446.846 174.866L447.81 175.132ZM446.297 176.769C446.376 176.505 446.655 176.355 446.92 176.435C447.184 176.514 447.334 176.793 447.254 177.057L446.297 176.769ZM446.657 178.967C446.571 179.23 446.289 179.373 446.027 179.288C445.764 179.203 445.62 178.921 445.706 178.658L446.657 178.967ZM445.074 180.531C445.165 180.27 445.45 180.133 445.711 180.224C445.972 180.315 446.109 180.6 446.018 180.861L445.074 180.531ZM445.336 182.746C445.239 183.005 444.951 183.136 444.692 183.039C444.433 182.943 444.302 182.655 444.399 182.396L445.336 182.746ZM443.689 184.233C443.791 183.977 444.082 183.852 444.338 183.954C444.595 184.057 444.72 184.347 444.617 184.604L443.689 184.233ZM443.852 186.463C443.744 186.717 443.45 186.836 443.196 186.728C442.942 186.62 442.823 186.326 442.931 186.072L443.852 186.463ZM442.14 187.883C442.253 187.631 442.549 187.519 442.801 187.632C443.053 187.745 443.165 188.041 443.051 188.293L442.14 187.883ZM442.21 190.109C442.092 190.358 441.793 190.464 441.544 190.345C441.295 190.226 441.189 189.928 441.308 189.679L442.21 190.109ZM440.435 191.46C440.559 191.213 440.86 191.114 441.107 191.238C441.353 191.362 441.452 191.663 441.328 191.909L440.435 191.46ZM440.413 193.679C440.284 193.923 439.981 194.015 439.737 193.886C439.494 193.756 439.401 193.454 439.53 193.21L440.413 193.679ZM438.579 194.954C438.714 194.713 439.019 194.627 439.26 194.762C439.501 194.897 439.587 195.202 439.452 195.443L438.579 194.954ZM438.454 197.179C438.314 197.417 438.008 197.497 437.77 197.356C437.532 197.216 437.453 196.91 437.593 196.672L438.454 197.179ZM436.575 198.356C436.72 198.121 437.029 198.049 437.263 198.194C437.498 198.34 437.57 198.648 437.424 198.883L436.575 198.356ZM436.344 200.58C436.193 200.811 435.883 200.876 435.652 200.725C435.421 200.574 435.356 200.264 435.507 200.033L436.344 200.58ZM434.403 201.678C434.56 201.451 434.871 201.393 435.099 201.55C435.326 201.707 435.384 202.018 435.227 202.245L434.403 201.678ZM434.074 203.876C433.912 204.099 433.599 204.149 433.376 203.986C433.153 203.824 433.103 203.511 433.265 203.288L434.074 203.876ZM432.086 204.868C432.254 204.648 432.568 204.607 432.787 204.775C433.006 204.944 433.047 205.257 432.879 205.476L432.086 204.868ZM431.63 207.056C431.456 207.271 431.141 207.303 430.927 207.128C430.713 206.954 430.681 206.639 430.855 206.425L431.63 207.056ZM429.582 207.94C429.763 207.731 430.079 207.709 430.287 207.89C430.496 208.071 430.518 208.387 430.337 208.595L429.582 207.94ZM429.156 95.6422C429.372 95.9046 429.585 96.1671 429.797 96.4296L429.019 97.0575C428.809 96.7973 428.597 96.537 428.383 96.2767L429.156 95.6422ZM431.046 98.0046C431.455 98.5296 431.856 99.0546 432.25 99.5795L431.451 100.18C431.06 99.6598 430.662 99.1394 430.257 98.619L431.046 98.0046ZM433.441 101.195C433.835 101.74 434.222 102.285 434.601 102.83L433.78 103.401C433.404 102.861 433.021 102.321 432.631 101.781L433.441 101.195ZM435.715 104.464C436.091 105.027 436.46 105.59 436.82 106.153L435.978 106.692C435.621 106.135 435.256 105.577 434.884 105.019L435.715 104.464ZM437.881 107.844C438.23 108.414 438.571 108.983 438.904 109.552L438.041 110.057C437.711 109.494 437.374 108.931 437.028 108.367L437.881 107.844ZM439.904 111.299C440.229 111.881 440.546 112.462 440.854 113.043L439.971 113.513C439.666 112.938 439.352 112.362 439.031 111.786L439.904 111.299ZM441.779 114.828C442.081 115.427 442.375 116.025 442.66 116.623L441.758 117.054C441.475 116.463 441.185 115.871 440.886 115.278L441.779 114.828ZM443.499 118.431C443.776 119.046 444.045 119.66 444.305 120.274L443.384 120.664C443.127 120.057 442.861 119.45 442.587 118.842L443.499 118.431ZM445.059 122.112C445.309 122.739 445.549 123.366 445.781 123.992L444.844 124.339C444.615 123.721 444.377 123.101 444.13 122.481L445.059 122.112ZM446.453 125.871C446.672 126.506 446.882 127.14 447.083 127.773L446.13 128.076C445.932 127.451 445.724 126.824 445.508 126.197L446.453 125.871ZM447.668 129.689C447.855 130.331 448.034 130.972 448.204 131.612L447.238 131.869C447.07 131.237 446.893 130.604 446.708 129.969L447.668 129.689ZM448.697 133.559C448.853 134.208 449 134.855 449.138 135.501L448.16 135.711C448.024 135.073 447.878 134.433 447.725 133.792L448.697 133.559ZM449.536 137.473C449.659 138.129 449.774 138.783 449.881 139.435L448.894 139.596C448.789 138.952 448.675 138.306 448.553 137.659L449.536 137.473ZM450.18 141.424C450.272 142.086 450.354 142.746 450.428 143.403L449.435 143.515C449.361 142.866 449.28 142.215 449.19 141.561L450.18 141.424ZM450.629 145.403C450.687 146.069 450.737 146.732 450.778 147.393L449.78 147.456C449.739 146.803 449.69 146.148 449.632 145.49L450.629 145.403ZM450.879 149.398C450.904 150.067 450.921 150.732 450.93 151.395L449.93 151.408C449.921 150.754 449.905 150.096 449.88 149.436L450.879 149.398ZM450.932 153.401C450.924 154.07 450.908 154.736 450.884 155.399L449.885 155.363C449.909 154.708 449.924 154.051 449.932 153.39L450.932 153.401ZM450.788 157.403C450.748 158.07 450.7 158.734 450.644 159.395L449.648 159.311C449.703 158.658 449.75 158.002 449.79 157.343L450.788 157.403ZM450.451 161.392C450.379 162.056 450.299 162.717 450.212 163.374L449.221 163.242C449.307 162.593 449.386 161.94 449.457 161.284L450.451 161.392ZM449.925 165.361C449.822 166.02 449.711 166.676 449.593 167.327L448.609 167.149C448.725 166.505 448.835 165.858 448.937 165.206L449.925 165.361ZM449.213 169.3C449.079 169.954 448.938 170.604 448.791 171.25L447.816 171.027C447.962 170.389 448.101 169.746 448.234 169.099L449.213 169.3ZM448.321 173.201C448.157 173.85 447.987 174.494 447.81 175.132L446.846 174.866C447.021 174.234 447.19 173.598 447.352 172.956L448.321 173.201ZM447.254 177.057C447.061 177.7 446.862 178.336 446.657 178.967L445.706 178.658C445.908 178.034 446.106 177.405 446.297 176.769L447.254 177.057ZM446.018 180.861C445.796 181.496 445.568 182.124 445.336 182.746L444.399 182.396C444.629 181.781 444.854 181.159 445.074 180.531L446.018 180.861ZM444.617 184.604C444.367 185.231 444.112 185.85 443.852 186.463L442.931 186.072C443.189 185.466 443.441 184.853 443.689 184.233L444.617 184.604ZM443.051 188.293C442.775 188.906 442.495 189.512 442.21 190.109L441.308 189.679C441.589 189.088 441.867 188.489 442.14 187.883L443.051 188.293ZM441.328 191.909C441.027 192.508 440.722 193.098 440.413 193.679L439.53 193.21C439.835 192.635 440.137 192.052 440.435 191.46L441.328 191.909ZM439.452 195.443C439.122 196.032 438.79 196.611 438.454 197.179L437.593 196.672C437.924 196.11 438.253 195.537 438.579 194.954L439.452 195.443ZM437.424 198.883C437.066 199.46 436.706 200.026 436.344 200.58L435.507 200.033C435.864 199.486 436.221 198.927 436.575 198.356L437.424 198.883ZM435.227 202.245C434.843 202.803 434.459 203.346 434.074 203.876L433.265 203.288C433.645 202.766 434.024 202.229 434.403 201.678L435.227 202.245ZM432.879 205.476C432.462 206.021 432.045 206.547 431.63 207.056L430.855 206.425C431.263 205.924 431.674 205.404 432.086 204.868L432.879 205.476ZM430.337 208.595C430.119 208.847 429.902 209.093 429.686 209.334L428.941 208.666C429.154 208.429 429.367 208.187 429.582 207.94L430.337 208.595Z" fill="url(#paint2_linear_73_50)"/>
<path d="M431.011 94.4266L426.746 94V97.8392" stroke="url(#paint3_linear_73_50)" stroke-linecap="round" stroke-linejoin="round" stroke-dasharray="2 2"/>
<path d="M426.229 209.716C426.138 209.887 425.926 209.951 425.755 209.861C425.585 209.77 425.52 209.558 425.61 209.387L426.229 209.716ZM417.279 176.509C417.124 176.393 417.092 176.174 417.207 176.019C417.323 175.864 417.542 175.832 417.697 175.947L417.279 176.509ZM418.538 176.593C418.689 176.713 418.715 176.934 418.595 177.085C418.475 177.237 418.255 177.262 418.103 177.142L418.538 176.593ZM419.676 178.469C419.532 178.34 419.521 178.119 419.65 177.975C419.779 177.831 420 177.819 420.144 177.949L419.676 178.469ZM421.663 179.409C421.798 179.548 421.795 179.77 421.656 179.904C421.517 180.039 421.296 180.036 421.161 179.897L421.663 179.409ZM422.543 181.426C422.418 181.278 422.438 181.057 422.586 180.933C422.734 180.809 422.955 180.828 423.079 180.976L422.543 181.426ZM424.37 182.64C424.483 182.797 424.446 183.015 424.289 183.128C424.132 183.24 423.913 183.204 423.801 183.047L424.37 182.64ZM424.931 184.768C424.832 184.602 424.885 184.387 425.051 184.288C425.217 184.188 425.432 184.242 425.531 184.408L424.931 184.768ZM426.54 186.259C426.625 186.433 426.554 186.643 426.381 186.728C426.207 186.813 425.997 186.742 425.912 186.568L426.54 186.259ZM426.74 188.451C426.67 188.271 426.759 188.068 426.939 187.998C427.119 187.928 427.322 188.017 427.393 188.197L426.74 188.451ZM428.075 190.196C428.13 190.382 428.024 190.576 427.838 190.631C427.653 190.685 427.458 190.579 427.404 190.394L428.075 190.196ZM427.899 192.385C427.861 192.196 427.983 192.011 428.172 191.972C428.361 191.933 428.546 192.056 428.585 192.245L427.899 192.385ZM428.923 194.332C428.945 194.524 428.808 194.698 428.617 194.721C428.425 194.744 428.25 194.607 428.227 194.415L428.923 194.332ZM428.389 196.465C428.381 196.272 428.532 196.109 428.725 196.102C428.918 196.094 429.081 196.245 429.088 196.438L428.389 196.465ZM429.087 198.549C429.079 198.742 428.917 198.893 428.724 198.885C428.53 198.878 428.38 198.715 428.388 198.522L429.087 198.549ZM428.229 200.573C428.251 200.381 428.424 200.243 428.616 200.266C428.808 200.288 428.946 200.461 428.924 200.653L428.229 200.573ZM428.603 202.739C428.567 202.929 428.384 203.053 428.194 203.017C428.004 202.981 427.88 202.797 427.916 202.607L428.603 202.739ZM427.453 204.612C427.503 204.426 427.696 204.315 427.882 204.366C428.069 204.417 428.179 204.609 428.128 204.795L427.453 204.612ZM427.498 206.807C427.433 206.989 427.233 207.084 427.051 207.019C426.869 206.954 426.774 206.754 426.839 206.572L427.498 206.807ZM426.062 208.476C426.144 208.3 426.352 208.224 426.527 208.305C426.702 208.387 426.779 208.595 426.698 208.77L426.062 208.476ZM417.697 175.947C417.984 176.161 418.264 176.376 418.538 176.593L418.103 177.142C417.835 176.929 417.56 176.718 417.279 176.509L417.697 175.947ZM420.144 177.949C420.679 178.429 421.185 178.917 421.663 179.409L421.161 179.897C420.694 179.416 420.199 178.939 419.676 178.469L420.144 177.949ZM423.079 180.976C423.54 181.526 423.97 182.08 424.37 182.64L423.801 183.047C423.411 182.503 422.992 181.962 422.543 181.426L423.079 180.976ZM425.531 184.408C425.9 185.022 426.236 185.64 426.54 186.259L425.912 186.568C425.616 185.966 425.29 185.366 424.931 184.768L425.531 184.408ZM427.393 188.197C427.653 188.864 427.879 189.531 428.075 190.196L427.404 190.394C427.213 189.748 426.993 189.099 426.74 188.451L427.393 188.197ZM428.585 192.245C428.729 192.946 428.84 193.643 428.923 194.332L428.227 194.415C428.147 193.744 428.039 193.067 427.899 192.385L428.585 192.245ZM429.088 196.438C429.116 197.154 429.114 197.858 429.087 198.549L428.388 198.522C428.414 197.848 428.416 197.162 428.389 196.465L429.088 196.438ZM428.924 200.653C428.841 201.369 428.733 202.066 428.603 202.739L427.916 202.607C428.042 201.95 428.148 201.271 428.229 200.573L428.924 200.653ZM428.128 204.795C427.937 205.502 427.724 206.175 427.498 206.807L426.839 206.572C427.059 205.956 427.266 205.301 427.453 204.612L428.128 204.795ZM426.698 208.77C426.543 209.103 426.386 209.419 426.229 209.716L425.61 209.387C425.762 209.102 425.913 208.798 426.062 208.476L426.698 208.77Z" fill="url(#paint4_linear_73_50)"/>
<path d="M423 72H349C348.448 72 348 72.4477 348 73V90C348 90.5523 348.448 91 349 91H423C423.552 91 424 90.5523 424 90V73C424 72.4477 423.552 72 423 72Z" fill="white" fill-opacity="0.15"/>
<path d="M423 72.1001H349C348.503 72.1001 348.1 72.503 348.1 73.0001V90.0001C348.1 90.4972 348.503 90.9001 349 90.9001H423C423.497 90.9001 423.9 90.4972 423.9 90.0001V73.0001C423.9 72.503 423.497 72.1001 423 72.1001Z" stroke="white" stroke-opacity="0.19" stroke-width="0.2"/>
<path d="M359.5 88C363.09 88 366 85.0899 366 81.5C366 77.9101 363.09 75 359.5 75C355.91 75 353 77.9101 353 81.5C353 85.0899 355.91 88 359.5 88Z" fill="#4A6CF7"/>
<path d="M357.167 79.7499H361.833V82.6665H357.167V79.7499ZM361.833 83.2499C361.988 83.2499 362.136 83.1884 362.246 83.079C362.355 82.9696 362.417 82.8212 362.417 82.6665V79.7499C362.417 79.4261 362.154 79.1665 361.833 79.1665H357.167C356.843 79.1665 356.583 79.4261 356.583 79.7499V82.6665C356.583 82.8212 356.645 82.9696 356.754 83.079C356.864 83.1884 357.012 83.2499 357.167 83.2499H356V83.8332H363V83.2499H361.833Z" fill="white"/>
<path d="M405.209 141.217L373.976 148.182C373.437 148.302 373.097 148.837 373.218 149.376L380.183 180.609C380.303 181.148 380.837 181.487 381.376 181.367L412.609 174.402C413.148 174.282 413.488 173.748 413.367 173.209L406.403 141.976C406.282 141.437 405.748 141.097 405.209 141.217Z" fill="#4A6CF7"/>
<path d="M395.47 171.053C400.86 169.851 404.255 164.507 403.053 159.116C401.851 153.726 396.507 150.331 391.116 151.533C385.726 152.735 382.331 158.079 383.533 163.469C384.735 168.86 390.079 172.255 395.47 171.053Z" fill="white"/>
<path d="M398.281 159.94L396.256 158.654C396.106 158.558 396.015 158.621 396.054 158.796L396.433 160.496L394.539 160.919C394.355 160.293 393.738 159.901 393.094 160L392.675 158.119L394.375 157.74C394.55 157.701 394.569 157.593 394.418 157.497L392.393 156.21C392.242 156.115 392.043 156.159 391.948 156.309L390.661 158.335C390.565 158.485 390.629 158.576 390.803 158.537L392.504 158.158L392.923 160.037C392.298 160.222 391.905 160.838 392.005 161.483L390.111 161.905L389.732 160.206C389.693 160.031 389.584 160.012 389.489 160.163L388.202 162.188C388.106 162.338 388.151 162.538 388.301 162.633L390.326 163.92C390.477 164.015 390.567 163.952 390.528 163.778L390.149 162.076L392.04 161.654C392.225 162.279 392.842 162.672 393.486 162.572L393.908 164.464L392.208 164.843C392.034 164.882 392.015 164.991 392.165 165.086L394.191 166.373C394.341 166.468 394.54 166.424 394.636 166.274L395.923 164.248C396.018 164.098 395.955 164.007 395.78 164.046L394.082 164.425L393.661 162.536C394.286 162.351 394.678 161.735 394.579 161.091L396.471 160.669L396.85 162.369C396.889 162.544 396.997 162.563 397.093 162.412L398.38 160.387C398.476 160.236 398.432 160.036 398.281 159.94Z" fill="#4A6CF7"/>
<g opacity="0.08">
<path opacity="0.08" d="M478 32H399C398.448 32 398 32.4477 398 33V51C398 51.5523 398.448 52 399 52H478C478.552 52 479 51.5523 479 51V33C479 32.4477 478.552 32 478 32Z" fill="white"/>
<path opacity="0.08" d="M478 32.1001H399C398.503 32.1001 398.1 32.503 398.1 33.0001V51.0001C398.1 51.4972 398.503 51.9001 399 51.9001H478C478.497 51.9001 478.9 51.4972 478.9 51.0001V33.0001C478.9 32.503 478.497 32.1001 478 32.1001Z" stroke="white" stroke-opacity="0.19" stroke-width="0.2"/>
</g>
<path d="M475 35H463C462.448 35 462 35.4477 462 36V48C462 48.5523 462.448 49 463 49H475C475.552 49 476 48.5523 476 48V36C476 35.4477 475.552 35 475 35Z" fill="#4A6CF7"/>
<path d="M468.998 38C466.791 38 465 39.7911 465 41.9982C465 44.2089 466.791 46 468.998 46C471.209 46 473 44.2089 473 41.9982C473 39.7911 471.209 38 468.998 38ZM469 45.5237C467.054 45.5237 465.476 43.9456 465.476 42C465.476 40.0544 467.054 38.4763 469 38.4763C470.946 38.4763 472.524 40.0544 472.524 42C472.524 43.9456 470.946 45.5237 469 45.5237ZM469 38.928V45.0693C470.694 45.0693 472.071 43.6923 472.071 41.9982C472.071 40.3077 470.694 38.928 469 38.928Z" fill="white"/>
<path opacity="0.5" d="M398 43.75C398.966 43.75 399.75 42.9665 399.75 42C399.75 41.0335 398.966 40.25 398 40.25C397.034 40.25 396.25 41.0335 396.25 42C396.25 42.9665 397.034 43.75 398 43.75Z" fill="#282C4D" stroke="white" stroke-width="0.5"/>
<path d="M347 41.75H396" stroke="url(#paint5_linear_73_50)" stroke-width="0.5"/>
<path d="M373.422 81.0232C373.422 81.2387 373.371 81.4421 373.27 81.6332C373.168 81.8243 373.005 81.9809 372.782 82.1029C372.558 82.2208 372.271 82.2798 371.922 82.2798H371.153V84H370.458V79.7605H371.922C372.247 79.7605 372.521 79.8174 372.745 79.9313C372.973 80.0411 373.142 80.1916 373.251 80.3827C373.365 80.5738 373.422 80.7873 373.422 81.0232ZM371.922 81.7125C372.186 81.7125 372.383 81.6535 372.513 81.5356C372.643 81.4136 372.708 81.2428 372.708 81.0232C372.708 80.5596 372.446 80.3278 371.922 80.3278H371.153V81.7125H371.922ZM374.781 79.486V84H374.085V79.486H374.781ZM377.39 80.584C377.654 80.584 377.89 80.6389 378.097 80.7487C378.309 80.8585 378.473 81.0212 378.591 81.2367C378.709 81.4522 378.768 81.7125 378.768 82.0175V84H378.079V82.1212C378.079 81.8203 378.004 81.5905 377.853 81.4319C377.703 81.2692 377.497 81.1879 377.237 81.1879C376.977 81.1879 376.769 81.2692 376.615 81.4319C376.464 81.5905 376.389 81.8203 376.389 82.1212V84H375.694V80.6389H376.389V81.0232C376.503 80.8849 376.647 80.7772 376.822 80.6999C377.001 80.6226 377.19 80.584 377.39 80.584ZM382.736 82.2371C382.736 82.3632 382.728 82.477 382.711 82.5787H380.143C380.163 82.8471 380.263 83.0626 380.442 83.2253C380.621 83.388 380.841 83.4693 381.101 83.4693C381.475 83.4693 381.739 83.3127 381.894 82.9996H382.644C382.542 83.3087 382.357 83.5628 382.089 83.7621C381.825 83.9573 381.495 84.0549 381.101 84.0549C380.78 84.0549 380.491 83.9837 380.235 83.8414C379.983 83.695 379.783 83.4917 379.637 83.2314C379.495 82.9671 379.423 82.6621 379.423 82.3164C379.423 81.9707 379.492 81.6678 379.631 81.4075C379.773 81.1432 379.97 80.9398 380.222 80.7975C380.479 80.6552 380.771 80.584 381.101 80.584C381.418 80.584 381.701 80.6531 381.949 80.7914C382.197 80.9297 382.39 81.1249 382.528 81.377C382.667 81.6251 382.736 81.9118 382.736 82.2371ZM382.01 82.0175C382.006 81.7613 381.914 81.5559 381.735 81.4014C381.556 81.2469 381.335 81.1696 381.07 81.1696C380.83 81.1696 380.625 81.2469 380.454 81.4014C380.283 81.5519 380.182 81.7572 380.149 82.0175H382.01ZM381.955 79.8947L381.083 80.401L380.21 79.8947V79.3518L381.083 79.8764L381.955 79.3518V79.8947ZM385.7 81.1269C385.802 80.9561 385.936 80.8239 386.103 80.7304C386.273 80.6328 386.475 80.584 386.706 80.584V81.3038H386.53C386.257 81.3038 386.05 81.3729 385.907 81.5112C385.769 81.6495 385.7 81.8894 385.7 82.231V84H385.005V80.6389H385.7V81.1269ZM390.426 82.2371C390.426 82.3632 390.418 82.477 390.402 82.5787H387.834C387.854 82.8471 387.954 83.0626 388.133 83.2253C388.312 83.388 388.531 83.4693 388.791 83.4693C389.166 83.4693 389.43 83.3127 389.584 82.9996H390.335C390.233 83.3087 390.048 83.5628 389.78 83.7621C389.515 83.9573 389.186 84.0549 388.791 84.0549C388.47 84.0549 388.181 83.9837 387.925 83.8414C387.673 83.695 387.474 83.4917 387.327 83.2314C387.185 82.9671 387.114 82.6621 387.114 82.3164C387.114 81.9707 387.183 81.6678 387.321 81.4075C387.464 81.1432 387.661 80.9398 387.913 80.7975C388.169 80.6552 388.462 80.584 388.791 80.584C389.109 80.584 389.391 80.6531 389.639 80.7914C389.887 80.9297 390.081 81.1249 390.219 81.377C390.357 81.6251 390.426 81.9118 390.426 82.2371ZM389.7 82.0175C389.696 81.7613 389.605 81.5559 389.426 81.4014C389.247 81.2469 389.025 81.1696 388.761 81.1696C388.521 81.1696 388.316 81.2469 388.145 81.4014C387.974 81.5519 387.872 81.7572 387.84 82.0175H389.7ZM392.331 84.0549C392.066 84.0549 391.828 84.0081 391.617 83.9146C391.409 83.817 391.245 83.6869 391.123 83.5242C391.001 83.3575 390.936 83.1724 390.928 82.9691H391.647C391.66 83.1114 391.727 83.2314 391.849 83.329C391.975 83.4225 392.131 83.4693 392.318 83.4693C392.514 83.4693 392.664 83.4327 392.77 83.3595C392.88 83.2822 392.934 83.1846 392.934 83.0667C392.934 82.9406 392.873 82.8471 392.751 82.7861C392.633 82.7251 392.444 82.658 392.184 82.5848C391.932 82.5157 391.727 82.4486 391.568 82.3835C391.409 82.3184 391.271 82.2188 391.153 82.0846C391.039 81.9504 390.982 81.7735 390.982 81.5539C390.982 81.375 391.035 81.2123 391.141 81.0659C391.247 80.9154 391.397 80.7975 391.592 80.7121C391.792 80.6267 392.019 80.584 392.276 80.584C392.658 80.584 392.965 80.6816 393.197 80.8768C393.433 81.0679 393.559 81.3302 393.575 81.6637H392.88C392.867 81.5132 392.806 81.3933 392.697 81.3038C392.587 81.2143 392.438 81.1696 392.251 81.1696C392.068 81.1696 391.928 81.2042 391.83 81.2733C391.733 81.3424 391.684 81.4339 391.684 81.5478C391.684 81.6373 391.716 81.7125 391.782 81.7735C391.847 81.8345 391.926 81.8833 392.019 81.9199C392.113 81.9524 392.251 81.9951 392.434 82.048C392.678 82.1131 392.877 82.1802 393.032 82.2493C393.191 82.3144 393.327 82.412 393.441 82.5421C393.555 82.6722 393.614 82.8451 393.618 83.0606C393.618 83.2517 393.565 83.4225 393.459 83.573C393.353 83.7235 393.203 83.8414 393.008 83.9268C392.816 84.0122 392.591 84.0549 392.331 84.0549ZM395.064 81.133C395.182 80.9785 395.343 80.8483 395.546 80.7426C395.75 80.6369 395.979 80.584 396.236 80.584C396.528 80.584 396.795 80.6572 397.035 80.8036C397.279 80.9459 397.47 81.1472 397.608 81.4075C397.746 81.6678 397.816 81.9667 397.816 82.3042C397.816 82.6417 397.746 82.9447 397.608 83.2131C397.47 83.4774 397.279 83.6848 397.035 83.8353C396.795 83.9817 396.528 84.0549 396.236 84.0549C395.979 84.0549 395.752 84.0041 395.552 83.9024C395.353 83.7967 395.19 83.6665 395.064 83.512V85.5982H394.369V80.6389H395.064V81.133ZM397.108 82.3042C397.108 82.0724 397.059 81.8731 396.962 81.7064C396.868 81.5356 396.742 81.4075 396.583 81.3221C396.429 81.2326 396.262 81.1879 396.083 81.1879C395.908 81.1879 395.742 81.2326 395.583 81.3221C395.428 81.4116 395.302 81.5417 395.205 81.7125C395.111 81.8833 395.064 82.0846 395.064 82.3164C395.064 82.5482 395.111 82.7515 395.205 82.9264C395.302 83.0972 395.428 83.2273 395.583 83.3168C395.742 83.4063 395.908 83.451 396.083 83.451C396.262 83.451 396.429 83.4063 396.583 83.3168C396.742 83.2233 396.868 83.0891 396.962 82.9142C397.059 82.7393 397.108 82.536 397.108 82.3042ZM399.961 84.0549C399.644 84.0549 399.357 83.9837 399.101 83.8414C398.845 83.695 398.644 83.4917 398.497 83.2314C398.351 82.9671 398.278 82.6621 398.278 82.3164C398.278 81.9748 398.353 81.6718 398.503 81.4075C398.654 81.1432 398.859 80.9398 399.119 80.7975C399.38 80.6552 399.67 80.584 399.992 80.584C400.313 80.584 400.604 80.6552 400.864 80.7975C401.124 80.9398 401.33 81.1432 401.48 81.4075C401.63 81.6718 401.706 81.9748 401.706 82.3164C401.706 82.658 401.628 82.961 401.474 83.2253C401.319 83.4896 401.108 83.695 400.84 83.8414C400.575 83.9837 400.282 84.0549 399.961 84.0549ZM399.961 83.451C400.14 83.451 400.307 83.4083 400.461 83.3229C400.62 83.2375 400.748 83.1094 400.846 82.9386C400.943 82.7678 400.992 82.5604 400.992 82.3164C400.992 82.0724 400.945 81.867 400.852 81.7003C400.758 81.5295 400.634 81.4014 400.48 81.316C400.325 81.2306 400.158 81.1879 399.979 81.1879C399.8 81.1879 399.634 81.2306 399.479 81.316C399.329 81.4014 399.209 81.5295 399.119 81.7003C399.03 81.867 398.985 82.0724 398.985 82.3164C398.985 82.6783 399.077 82.9589 399.26 83.1582C399.447 83.3534 399.681 83.451 399.961 83.451ZM404.089 80.584C404.353 80.584 404.589 80.6389 404.797 80.7487C405.008 80.8585 405.173 81.0212 405.291 81.2367C405.409 81.4522 405.468 81.7125 405.468 82.0175V84H404.778V82.1212C404.778 81.8203 404.703 81.5905 404.553 81.4319C404.402 81.2692 404.197 81.1879 403.936 81.1879C403.676 81.1879 403.469 81.2692 403.314 81.4319C403.164 81.5905 403.089 81.8203 403.089 82.1212V84H402.393V80.6389H403.089V81.0232C403.202 80.8849 403.347 80.7772 403.522 80.6999C403.701 80.6226 403.89 80.584 404.089 80.584ZM406.971 83.4327H408.496V84H406.165V83.4327L407.697 81.2062H406.165V80.6389H408.496V81.2062L406.971 83.4327ZM409.58 80.1936C409.454 80.1936 409.348 80.1509 409.262 80.0655C409.177 79.9801 409.134 79.8744 409.134 79.7483C409.134 79.6222 409.177 79.5165 409.262 79.4311C409.348 79.3457 409.454 79.303 409.58 79.303C409.702 79.303 409.805 79.3457 409.891 79.4311C409.976 79.5165 410.019 79.6222 410.019 79.7483C410.019 79.8744 409.976 79.9801 409.891 80.0655C409.805 80.1509 409.702 80.1936 409.58 80.1936ZM409.921 80.6389V84H409.226V80.6389H409.921ZM412.134 83.3778L413.085 80.6389H413.823L412.542 84H411.713L410.438 80.6389H411.182L412.134 83.3778ZM416.045 80.584C416.309 80.584 416.545 80.6389 416.752 80.7487C416.964 80.8585 417.128 81.0212 417.246 81.2367C417.364 81.4522 417.423 81.7125 417.423 82.0175V84H416.734V82.1212C416.734 81.8203 416.659 81.5905 416.508 81.4319C416.358 81.2692 416.152 81.1879 415.892 81.1879C415.632 81.1879 415.425 81.2692 415.27 81.4319C415.12 81.5905 415.044 81.8203 415.044 82.1212V84H414.349V80.6389H415.044V81.0232C415.158 80.8849 415.303 80.7772 415.477 80.6999C415.656 80.6226 415.845 80.584 416.045 80.584ZM419.006 80.6389V84H418.31V80.6389H419.006ZM419.286 79.7361L417.938 80.401V79.8886L419.286 79.1444V79.7361Z" fill="white"/>
<path d="M399.055 220.787L397.098 226H396.108L394.143 220.787H395.058L396.603 225.122L398.155 220.787H399.055ZM399.485 223.915C399.485 223.5 399.57 223.132 399.74 222.812C399.915 222.492 400.15 222.245 400.445 222.07C400.745 221.89 401.075 221.8 401.435 221.8C401.76 221.8 402.043 221.865 402.283 221.995C402.528 222.12 402.723 222.277 402.868 222.467V221.868H403.73V226H402.868V225.385C402.723 225.58 402.525 225.742 402.275 225.872C402.025 226.003 401.74 226.068 401.42 226.068C401.065 226.068 400.74 225.978 400.445 225.797C400.15 225.612 399.915 225.357 399.74 225.032C399.57 224.702 399.485 224.33 399.485 223.915ZM402.868 223.93C402.868 223.645 402.808 223.397 402.688 223.187C402.573 222.977 402.42 222.817 402.23 222.707C402.04 222.597 401.835 222.542 401.615 222.542C401.395 222.542 401.19 222.597 401 222.707C400.81 222.812 400.655 222.97 400.535 223.18C400.42 223.385 400.363 223.63 400.363 223.915C400.363 224.2 400.42 224.45 400.535 224.665C400.655 224.88 400.81 225.045 401 225.16C401.195 225.27 401.4 225.325 401.615 225.325C401.835 225.325 402.04 225.27 402.23 225.16C402.42 225.05 402.573 224.89 402.688 224.68C402.808 224.465 402.868 224.215 402.868 223.93ZM406.353 226.068C406.028 226.068 405.736 226.01 405.476 225.895C405.221 225.775 405.018 225.615 404.868 225.415C404.718 225.21 404.638 224.982 404.628 224.732H405.513C405.528 224.907 405.611 225.055 405.761 225.175C405.916 225.29 406.108 225.347 406.338 225.347C406.578 225.347 406.763 225.302 406.893 225.212C407.028 225.117 407.096 224.997 407.096 224.852C407.096 224.697 407.021 224.582 406.871 224.507C406.726 224.432 406.493 224.35 406.173 224.26C405.863 224.175 405.611 224.092 405.416 224.012C405.221 223.932 405.051 223.81 404.906 223.645C404.766 223.48 404.696 223.262 404.696 222.992C404.696 222.772 404.761 222.572 404.891 222.392C405.021 222.207 405.206 222.062 405.446 221.957C405.691 221.852 405.971 221.8 406.286 221.8C406.756 221.8 407.133 221.92 407.418 222.16C407.708 222.395 407.863 222.717 407.883 223.127H407.028C407.013 222.942 406.938 222.795 406.803 222.685C406.668 222.575 406.486 222.52 406.256 222.52C406.031 222.52 405.858 222.562 405.738 222.647C405.618 222.732 405.558 222.845 405.558 222.985C405.558 223.095 405.598 223.187 405.678 223.262C405.758 223.337 405.856 223.397 405.971 223.442C406.086 223.482 406.256 223.535 406.481 223.6C406.781 223.68 407.026 223.762 407.216 223.847C407.411 223.927 407.578 224.047 407.718 224.207C407.858 224.367 407.931 224.58 407.936 224.845C407.936 225.08 407.871 225.29 407.741 225.475C407.611 225.66 407.426 225.805 407.186 225.91C406.951 226.015 406.673 226.068 406.353 226.068ZM407.358 220.885L406.286 221.507L405.213 220.885V220.217L406.286 220.862L407.358 220.217V220.885ZM412.647 223.832C412.647 223.987 412.637 224.127 412.617 224.252H409.459C409.484 224.582 409.607 224.847 409.827 225.047C410.047 225.247 410.317 225.347 410.637 225.347C411.097 225.347 411.422 225.155 411.612 224.77H412.534C412.409 225.15 412.182 225.462 411.852 225.707C411.527 225.948 411.122 226.068 410.637 226.068C410.242 226.068 409.887 225.98 409.572 225.805C409.262 225.625 409.017 225.375 408.837 225.055C408.662 224.73 408.574 224.355 408.574 223.93C408.574 223.505 408.659 223.132 408.829 222.812C409.004 222.487 409.247 222.237 409.557 222.062C409.872 221.887 410.232 221.8 410.637 221.8C411.027 221.8 411.374 221.885 411.679 222.055C411.984 222.225 412.222 222.465 412.392 222.775C412.562 223.08 412.647 223.432 412.647 223.832ZM411.754 223.562C411.749 223.247 411.637 222.995 411.417 222.805C411.197 222.615 410.924 222.52 410.599 222.52C410.304 222.52 410.052 222.615 409.842 222.805C409.632 222.99 409.507 223.242 409.467 223.562H411.754ZM416.937 226.068C416.612 226.068 416.319 226.01 416.059 225.895C415.804 225.775 415.602 225.615 415.452 225.415C415.302 225.21 415.222 224.982 415.212 224.732H416.097C416.112 224.907 416.194 225.055 416.344 225.175C416.499 225.29 416.692 225.347 416.922 225.347C417.162 225.347 417.347 225.302 417.477 225.212C417.612 225.117 417.679 224.997 417.679 224.852C417.679 224.697 417.604 224.582 417.454 224.507C417.309 224.432 417.077 224.35 416.757 224.26C416.447 224.175 416.194 224.092 415.999 224.012C415.804 223.932 415.634 223.81 415.489 223.645C415.349 223.48 415.279 223.262 415.279 222.992C415.279 222.772 415.344 222.572 415.474 222.392C415.604 222.207 415.789 222.062 416.029 221.957C416.274 221.852 416.554 221.8 416.869 221.8C417.339 221.8 417.717 221.92 418.002 222.16C418.292 222.395 418.447 222.717 418.467 223.127H417.612C417.597 222.942 417.522 222.795 417.387 222.685C417.252 222.575 417.069 222.52 416.839 222.52C416.614 222.52 416.442 222.562 416.322 222.647C416.202 222.732 416.142 222.845 416.142 222.985C416.142 223.095 416.182 223.187 416.262 223.262C416.342 223.337 416.439 223.397 416.554 223.442C416.669 223.482 416.839 223.535 417.064 223.6C417.364 223.68 417.609 223.762 417.799 223.847C417.994 223.927 418.162 224.047 418.302 224.207C418.442 224.367 418.514 224.58 418.519 224.845C418.519 225.08 418.454 225.29 418.324 225.475C418.194 225.66 418.009 225.805 417.769 225.91C417.534 226.015 417.257 226.068 416.937 226.068ZM420.44 222.565V224.852C420.44 225.007 420.475 225.12 420.545 225.19C420.62 225.255 420.745 225.287 420.92 225.287H421.445V226H420.77C420.385 226 420.09 225.91 419.885 225.73C419.68 225.55 419.578 225.257 419.578 224.852V222.565H419.09V221.868H419.578V220.84H420.44V221.868H421.445V222.565H420.44ZM423.088 222.467C423.213 222.257 423.378 222.095 423.583 221.98C423.793 221.86 424.041 221.8 424.326 221.8V222.685H424.108C423.773 222.685 423.518 222.77 423.343 222.94C423.173 223.11 423.088 223.405 423.088 223.825V226H422.233V221.868H423.088V222.467ZM424.827 223.915C424.827 223.5 424.912 223.132 425.082 222.812C425.257 222.492 425.492 222.245 425.787 222.07C426.087 221.89 426.417 221.8 426.777 221.8C427.102 221.8 427.384 221.865 427.624 221.995C427.869 222.12 428.064 222.277 428.209 222.467V221.868H429.072V226H428.209V225.385C428.064 225.58 427.867 225.742 427.617 225.872C427.367 226.003 427.082 226.068 426.762 226.068C426.407 226.068 426.082 225.978 425.787 225.797C425.492 225.612 425.257 225.357 425.082 225.032C424.912 224.702 424.827 224.33 424.827 223.915ZM428.209 223.93C428.209 223.645 428.149 223.397 428.029 223.187C427.914 222.977 427.762 222.817 427.572 222.707C427.382 222.597 427.177 222.542 426.957 222.542C426.737 222.542 426.532 222.597 426.342 222.707C426.152 222.812 425.997 222.97 425.877 223.18C425.762 223.385 425.704 223.63 425.704 223.915C425.704 224.2 425.762 224.45 425.877 224.665C425.997 224.88 426.152 225.045 426.342 225.16C426.537 225.27 426.742 225.325 426.957 225.325C427.177 225.325 427.382 225.27 427.572 225.16C427.762 225.05 427.914 224.89 428.029 224.68C428.149 224.465 428.209 224.215 428.209 223.93ZM427.864 220.757L426.207 221.575V220.945L427.864 220.03V220.757ZM432.28 221.8C432.605 221.8 432.895 221.867 433.15 222.002C433.41 222.137 433.612 222.337 433.757 222.602C433.902 222.867 433.975 223.187 433.975 223.562V226H433.127V223.69C433.127 223.32 433.035 223.037 432.85 222.842C432.665 222.642 432.412 222.542 432.092 222.542C431.772 222.542 431.517 222.642 431.327 222.842C431.142 223.037 431.05 223.32 431.05 223.69V226H430.195V221.868H431.05V222.34C431.19 222.17 431.367 222.037 431.582 221.942C431.802 221.847 432.035 221.8 432.28 221.8ZM436.7 223.937L438.605 226H437.45L435.92 224.222V226H435.065V220.45H435.92V223.675L437.42 221.868H438.605L436.7 223.937ZM438.933 223.915C438.933 223.5 439.018 223.132 439.188 222.812C439.363 222.492 439.598 222.245 439.893 222.07C440.193 221.89 440.523 221.8 440.883 221.8C441.208 221.8 441.491 221.865 441.731 221.995C441.976 222.12 442.171 222.277 442.316 222.467V221.868H443.178V226H442.316V225.385C442.171 225.58 441.973 225.742 441.723 225.872C441.473 226.003 441.188 226.068 440.868 226.068C440.513 226.068 440.188 225.978 439.893 225.797C439.598 225.612 439.363 225.357 439.188 225.032C439.018 224.702 438.933 224.33 438.933 223.915ZM442.316 223.93C442.316 223.645 442.256 223.397 442.136 223.187C442.021 222.977 441.868 222.817 441.678 222.707C441.488 222.597 441.283 222.542 441.063 222.542C440.843 222.542 440.638 222.597 440.448 222.707C440.258 222.812 440.103 222.97 439.983 223.18C439.868 223.385 439.811 223.63 439.811 223.915C439.811 224.2 439.868 224.45 439.983 224.665C440.103 224.88 440.258 225.045 440.448 225.16C440.643 225.27 440.848 225.325 441.063 225.325C441.283 225.325 441.488 225.27 441.678 225.16C441.868 225.05 442.021 224.89 442.136 224.68C442.256 224.465 442.316 224.215 442.316 223.93Z" fill="white"/>
<path d="M407.876 44H407.192L405.134 40.886V44H404.45V39.824H405.134L407.192 42.932V39.824H407.876V44ZM411.804 42.266C411.804 42.39 411.796 42.502 411.78 42.602H409.254C409.274 42.866 409.372 43.078 409.548 43.238C409.724 43.398 409.94 43.478 410.196 43.478C410.564 43.478 410.824 43.324 410.976 43.016H411.714C411.614 43.32 411.432 43.57 411.168 43.766C410.908 43.958 410.584 44.054 410.196 44.054C409.88 44.054 409.596 43.984 409.344 43.844C409.096 43.7 408.9 43.5 408.756 43.244C408.616 42.984 408.546 42.684 408.546 42.344C408.546 42.004 408.614 41.706 408.75 41.45C408.89 41.19 409.084 40.99 409.332 40.85C409.584 40.71 409.872 40.64 410.196 40.64C410.508 40.64 410.786 40.708 411.03 40.844C411.274 40.98 411.464 41.172 411.6 41.42C411.736 41.664 411.804 41.946 411.804 42.266ZM411.09 42.05C411.086 41.798 410.996 41.596 410.82 41.444C410.644 41.292 410.426 41.216 410.166 41.216C409.93 41.216 409.728 41.292 409.56 41.444C409.392 41.592 409.292 41.794 409.26 42.05H411.09ZM415.471 40.694V44H414.787V43.61C414.679 43.746 414.537 43.854 414.361 43.934C414.189 44.01 414.005 44.048 413.809 44.048C413.549 44.048 413.315 43.994 413.107 43.886C412.903 43.778 412.741 43.618 412.621 43.406C412.505 43.194 412.447 42.938 412.447 42.638V40.694H413.125V42.536C413.125 42.832 413.199 43.06 413.347 43.22C413.495 43.376 413.697 43.454 413.953 43.454C414.209 43.454 414.411 43.376 414.559 43.22C414.711 43.06 414.787 42.832 414.787 42.536V40.694H415.471ZM417.574 44.054C417.314 44.054 417.08 44.008 416.872 43.916C416.668 43.82 416.506 43.692 416.386 43.532C416.266 43.368 416.202 43.186 416.194 42.986H416.902C416.914 43.126 416.98 43.244 417.1 43.34C417.224 43.432 417.378 43.478 417.562 43.478C417.754 43.478 417.902 43.442 418.006 43.37C418.114 43.294 418.168 43.198 418.168 43.082C418.168 42.958 418.108 42.866 417.988 42.806C417.872 42.746 417.686 42.68 417.43 42.608C417.182 42.54 416.98 42.474 416.824 42.41C416.668 42.346 416.532 42.248 416.416 42.116C416.304 41.984 416.248 41.81 416.248 41.594C416.248 41.418 416.3 41.258 416.404 41.114C416.508 40.966 416.656 40.85 416.848 40.766C417.044 40.682 417.268 40.64 417.52 40.64C417.896 40.64 418.198 40.736 418.426 40.928C418.658 41.116 418.782 41.374 418.798 41.702H418.114C418.102 41.554 418.042 41.436 417.934 41.348C417.826 41.26 417.68 41.216 417.496 41.216C417.316 41.216 417.178 41.25 417.082 41.318C416.986 41.386 416.938 41.476 416.938 41.588C416.938 41.676 416.97 41.75 417.034 41.81C417.098 41.87 417.176 41.918 417.268 41.954C417.36 41.986 417.496 42.028 417.676 42.08C417.916 42.144 418.112 42.21 418.264 42.278C418.42 42.342 418.554 42.438 418.666 42.566C418.778 42.694 418.836 42.864 418.84 43.076C418.84 43.264 418.788 43.432 418.684 43.58C418.58 43.728 418.432 43.844 418.24 43.928C418.052 44.012 417.83 44.054 417.574 44.054ZM420.377 41.252V43.082C420.377 43.206 420.405 43.296 420.461 43.352C420.521 43.404 420.621 43.43 420.761 43.43H421.181V44H420.641C420.333 44 420.097 43.928 419.933 43.784C419.769 43.64 419.687 43.406 419.687 43.082V41.252H419.297V40.694H419.687V39.872H420.377V40.694H421.181V41.252H420.377ZM421.583 42.332C421.583 42 421.651 41.706 421.787 41.45C421.927 41.194 422.115 40.996 422.351 40.856C422.591 40.712 422.855 40.64 423.143 40.64C423.403 40.64 423.629 40.692 423.821 40.796C424.017 40.896 424.173 41.022 424.289 41.174V40.694H424.979V44H424.289V43.508C424.173 43.664 424.015 43.794 423.815 43.898C423.615 44.002 423.387 44.054 423.131 44.054C422.847 44.054 422.587 43.982 422.351 43.838C422.115 43.69 421.927 43.486 421.787 43.226C421.651 42.962 421.583 42.664 421.583 42.332ZM424.289 42.344C424.289 42.116 424.241 41.918 424.145 41.75C424.053 41.582 423.931 41.454 423.779 41.366C423.627 41.278 423.463 41.234 423.287 41.234C423.111 41.234 422.947 41.278 422.795 41.366C422.643 41.45 422.519 41.576 422.423 41.744C422.331 41.908 422.285 42.104 422.285 42.332C422.285 42.56 422.331 42.76 422.423 42.932C422.519 43.104 422.643 43.236 422.795 43.328C422.951 43.416 423.115 43.46 423.287 43.46C423.463 43.46 423.627 43.416 423.779 43.328C423.931 43.24 424.053 43.112 424.145 42.944C424.241 42.772 424.289 42.572 424.289 42.344ZM424.013 39.806L422.687 40.46V39.956L424.013 39.224V39.806ZM426.562 39.56V44H425.878V39.56H426.562ZM430.49 42.266C430.49 42.39 430.482 42.502 430.466 42.602H427.94C427.96 42.866 428.058 43.078 428.234 43.238C428.41 43.398 428.626 43.478 428.882 43.478C429.25 43.478 429.51 43.324 429.662 43.016H430.4C430.3 43.32 430.118 43.57 429.854 43.766C429.594 43.958 429.27 44.054 428.882 44.054C428.566 44.054 428.282 43.984 428.03 43.844C427.782 43.7 427.586 43.5 427.442 43.244C427.302 42.984 427.232 42.684 427.232 42.344C427.232 42.004 427.3 41.706 427.436 41.45C427.576 41.19 427.77 40.99 428.018 40.85C428.27 40.71 428.558 40.64 428.882 40.64C429.194 40.64 429.472 40.708 429.716 40.844C429.96 40.98 430.15 41.172 430.286 41.42C430.422 41.664 430.49 41.946 430.49 42.266ZM429.776 42.05C429.772 41.798 429.682 41.596 429.506 41.444C429.33 41.292 429.112 41.216 428.852 41.216C428.616 41.216 428.414 41.292 428.246 41.444C428.078 41.592 427.978 41.794 427.946 42.05H429.776ZM432.493 42.332C432.493 42 432.561 41.706 432.697 41.45C432.837 41.194 433.025 40.996 433.261 40.856C433.501 40.712 433.765 40.64 434.053 40.64C434.313 40.64 434.539 40.692 434.731 40.796C434.927 40.896 435.083 41.022 435.199 41.174V40.694H435.889V44H435.199V43.508C435.083 43.664 434.925 43.794 434.725 43.898C434.525 44.002 434.297 44.054 434.041 44.054C433.757 44.054 433.497 43.982 433.261 43.838C433.025 43.69 432.837 43.486 432.697 43.226C432.561 42.962 432.493 42.664 432.493 42.332ZM435.199 42.344C435.199 42.116 435.151 41.918 435.055 41.75C434.963 41.582 434.841 41.454 434.689 41.366C434.537 41.278 434.373 41.234 434.197 41.234C434.021 41.234 433.857 41.278 433.705 41.366C433.553 41.45 433.429 41.576 433.333 41.744C433.241 41.908 433.195 42.104 433.195 42.332C433.195 42.56 433.241 42.76 433.333 42.932C433.429 43.104 433.553 43.236 433.705 43.328C433.861 43.416 434.025 43.46 434.197 43.46C434.373 43.46 434.537 43.416 434.689 43.328C434.841 43.24 434.963 43.112 435.055 42.944C435.151 42.772 435.199 42.572 435.199 42.344ZM438.096 42.35L439.62 44H438.696L437.472 42.578V44H436.788V39.56H437.472V42.14L438.672 40.694H439.62L438.096 42.35ZM440.908 41.252V43.082C440.908 43.206 440.936 43.296 440.992 43.352C441.052 43.404 441.152 43.43 441.292 43.43H441.712V44H441.172C440.864 44 440.628 43.928 440.464 43.784C440.3 43.64 440.218 43.406 440.218 43.082V41.252H439.828V40.694H440.218V39.872H440.908V40.694H441.712V41.252H440.908ZM445.337 40.694V44H444.653V43.61C444.545 43.746 444.403 43.854 444.227 43.934C444.055 44.01 443.871 44.048 443.675 44.048C443.415 44.048 443.181 43.994 442.973 43.886C442.769 43.778 442.607 43.618 442.487 43.406C442.371 43.194 442.313 42.938 442.313 42.638V40.694H442.991V42.536C442.991 42.832 443.065 43.06 443.213 43.22C443.361 43.376 443.563 43.454 443.819 43.454C444.075 43.454 444.277 43.376 444.425 43.22C444.577 43.06 444.653 42.832 444.653 42.536V40.694H445.337ZM446.011 42.332C446.011 42 446.079 41.706 446.215 41.45C446.355 41.194 446.543 40.996 446.779 40.856C447.019 40.712 447.283 40.64 447.571 40.64C447.831 40.64 448.057 40.692 448.249 40.796C448.445 40.896 448.601 41.022 448.717 41.174V40.694H449.407V44H448.717V43.508C448.601 43.664 448.443 43.794 448.243 43.898C448.043 44.002 447.815 44.054 447.559 44.054C447.275 44.054 447.015 43.982 446.779 43.838C446.543 43.69 446.355 43.486 446.215 43.226C446.079 42.962 446.011 42.664 446.011 42.332ZM448.717 42.344C448.717 42.116 448.669 41.918 448.573 41.75C448.481 41.582 448.359 41.454 448.207 41.366C448.055 41.278 447.891 41.234 447.715 41.234C447.539 41.234 447.375 41.278 447.223 41.366C447.071 41.45 446.947 41.576 446.851 41.744C446.759 41.908 446.713 42.104 446.713 42.332C446.713 42.56 446.759 42.76 446.851 42.932C446.947 43.104 447.071 43.236 447.223 43.328C447.379 43.416 447.543 43.46 447.715 43.46C447.891 43.46 448.055 43.416 448.207 43.328C448.359 43.24 448.481 43.112 448.573 42.944C448.669 42.772 448.717 42.572 448.717 42.344ZM448.441 39.806L447.115 40.46V39.956L448.441 39.224V39.806ZM450.989 39.56V44H450.305V39.56H450.989ZM453.556 40.64C453.816 40.64 454.048 40.694 454.252 40.802C454.46 40.91 454.622 41.07 454.738 41.282C454.854 41.494 454.912 41.75 454.912 42.05V44H454.234V42.152C454.234 41.856 454.16 41.63 454.012 41.474C453.864 41.314 453.662 41.234 453.406 41.234C453.15 41.234 452.946 41.314 452.794 41.474C452.646 41.63 452.572 41.856 452.572 42.152V44H451.888V40.694H452.572V41.072C452.684 40.936 452.826 40.83 452.998 40.754C453.174 40.678 453.36 40.64 453.556 40.64ZM456.468 40.694V44H455.784V40.694H456.468ZM456.744 39.806L455.418 40.46V39.956L456.744 39.224V39.806Z" fill="white"/>
<defs>
<linearGradient id="paint0_linear_73_50" x1="374.3" y1="234.975" x2="361.897" y2="369.833" gradientUnits="userSpaceOnUse">
<stop stop-color="white" stop-opacity="0.48"/>
<stop offset="1" stop-color="white" stop-opacity="0"/>
</linearGradient>
<linearGradient id="paint1_linear_73_50" x1="378.318" y1="233" x2="378.318" y2="237.617" gradientUnits="userSpaceOnUse">
<stop stop-color="white" stop-opacity="0.55"/>
<stop offset="1" stop-color="white" stop-opacity="0.62"/>
</linearGradient>
<linearGradient id="paint2_linear_73_50" x1="432.22" y1="95.6422" x2="442.533" y2="207.784" gradientUnits="userSpaceOnUse">
<stop stop-color="white" stop-opacity="0.48"/>
<stop offset="1" stop-color="white" stop-opacity="0"/>
</linearGradient>
<linearGradient id="paint3_linear_73_50" x1="428.878" y1="94" x2="428.878" y2="97.8392" gradientUnits="userSpaceOnUse">
<stop stop-color="white" stop-opacity="0.55"/>
<stop offset="1" stop-color="white" stop-opacity="0.62"/>
</linearGradient>
<linearGradient id="paint4_linear_73_50" x1="418.483" y1="175.882" x2="429.732" y2="208.225" gradientUnits="userSpaceOnUse">
<stop stop-color="white" stop-opacity="0.48"/>
<stop offset="1" stop-color="white" stop-opacity="0"/>
</linearGradient>
<linearGradient id="paint5_linear_73_50" x1="-nan" y1="-nan" x2="-nan" y2="-nan" gradientUnits="userSpaceOnUse">
<stop stop-color="white" stop-opacity="0.28"/>
<stop offset="1" stop-color="white" stop-opacity="0"/>
</linearGradient>
</defs>
</svg>
