<svg width="500" height="480" fill="none" xmlns="http://www.w3.org/2000/svg"><path opacity=".05" d="M498 310H332a2 2 0 0 0-2 2v166a2 2 0 0 0 2 2h166a2 2 0 0 0 2-2V312a2 2 0 0 0-2-2Z" fill="#4A6CF7"/><path d="m438.454 346.892-74.513 18.458a2 2 0 0 0-1.46 2.422l18.458 74.513a2 2 0 0 0 2.422 1.461l74.513-18.458a2 2 0 0 0 1.46-2.422l-18.457-74.513a2.002 2.002 0 0 0-2.423-1.461Z" fill="#4A6CF7"/><path d="M412.572 402.039a5.192 5.192 0 0 1-6.288-3.792 5.206 5.206 0 0 1 1.434-5.008l13.973-13.482-5.303 18.395a5.203 5.203 0 0 1-3.816 3.887Zm-5.41-21.839c3.041-.753 6.088-.617 8.899.149l-3.024 2.907a13.846 13.846 0 0 0-5.042.304 13.842 13.842 0 0 0-10.111 16.768 13.727 13.727 0 0 0 6.283 8.518l.016-.004a1.722 1.722 0 0 1 .587 2.368 1.76 1.76 0 0 1-2.381.608 17.248 17.248 0 0 1-7.864-10.658 17.304 17.304 0 0 1 12.637-20.96Zm20.961 12.638a17.257 17.257 0 0 1-1.98 13.096 1.74 1.74 0 0 1-2.373.57 1.723 1.723 0 0 1-.587-2.369 13.753 13.753 0 0 0 1.58-10.465 13.953 13.953 0 0 0-2.114-4.647l1.159-4.031c2.018 2.174 3.557 4.788 4.315 7.846Z" fill="#fff"/><path d="M298 0H2a2 2 0 0 0-2 2v476a2 2 0 0 0 2 2h296a2 2 0 0 0 2-2V2a2 2 0 0 0-2-2Z" fill="#151A3E" fill-opacity=".9"/><path opacity=".35" d="M263 35H37a2 2 0 0 0-2 2v130a2 2 0 0 0 2 2h226a2 2 0 0 0 2-2V37a2 2 0 0 0-2-2Z" fill="#4A6CF7"/><path opacity=".1" d="M263 194H37a2 2 0 0 0-2 2v23a2 2 0 0 0 2 2h226a2 2 0 0 0 2-2v-23a2 2 0 0 0-2-2ZM170 246H37a2 2 0 0 0-2 2v195a2 2 0 0 0 2 2h133a2 2 0 0 0 2-2V248a2 2 0 0 0-2-2Z" fill="#fff"/><path opacity=".08" d="M263 246h-74a2 2 0 0 0-2 2v60a2 2 0 0 0 2 2h74a2 2 0 0 0 2-2v-60a2 2 0 0 0-2-2Z" fill="#fff"/><path opacity=".2" d="M263 322h-74a2 2 0 0 0-2 2v51a2 2 0 0 0 2 2h74a2 2 0 0 0 2-2v-51a2 2 0 0 0-2-2Z" fill="#fff"/><path opacity=".2" d="M263 389h-74a2 2 0 0 0-2 2v52a2 2 0 0 0 2 2h74a2 2 0 0 0 2-2v-52a2 2 0 0 0-2-2Z" fill="#4A6CF7"/><path d="M377.423 371.629a.499.499 0 1 0 .744-.668l-.744.668Zm1.412-135.955a.5.5 0 0 0-.773-.635l.773.635Zm-1.419.158a.5.5 0 1 0 .777.629l-.777-.629Zm-.478 2.204a.5.5 0 0 0-.786-.618l.786.618Zm-2.014.968a.5.5 0 1 0 .796.606l-.796-.606Zm-.391 2.186a.5.5 0 0 0-.804-.594l.804.594Zm-2.002 1.052a.5.5 0 1 0 .813.582l-.813-.582Zm-.337 2.216a.5.5 0 1 0-.822-.57l.822.57Zm-1.942 1.075a.5.5 0 0 0 .831.557l-.831-.557Zm-.276 2.239a.5.5 0 0 0-.84-.543l.84.543Zm-1.922 1.161a.5.5 0 1 0 .849.529l-.849-.529Zm-.185 2.217a.499.499 0 1 0-.857-.515l.857.515Zm-1.884 1.228a.5.5 0 0 0 .866.5l-.866-.5Zm-.121 2.243a.5.5 0 0 0-.874-.485l.874.485Zm-1.828 1.271a.5.5 0 1 0 .882.47l-.882-.47Zm-.043 2.246a.5.5 0 0 0-.891-.454l.891.454Zm-1.792 1.354a.5.5 0 1 0 .899.438l-.899-.438Zm.048 2.227a.5.5 0 1 0-.907-.421l.907.421Zm-1.742 1.421a.501.501 0 0 0 .915.404l-.915-.404Zm.124 2.241a.5.5 0 1 0-.922-.387l.922.387Zm-1.678 1.462a.501.501 0 0 0 .93.37l-.93-.37Zm.206 2.243a.5.5 0 0 0-.936-.351l.936.351Zm-1.625 1.543a.5.5 0 0 0 .943.332l-.943-.332Zm.302 2.207a.501.501 0 0 0-.95-.314l.95.314Zm-1.568 1.619a.5.5 0 1 0 .955.295l-.955-.295Zm.387 2.202a.5.5 0 1 0-.961-.276l.961.276Zm-1.497 1.663a.5.5 0 0 0 .967.256l-.967-.256Zm.473 2.197a.499.499 0 1 0-.971-.237l.971.237Zm-1.426 1.715a.5.5 0 1 0 .976.217l-.976-.217Zm.563 2.176a.502.502 0 0 0-.981-.197l.981.197Zm-1.356 1.783a.5.5 0 0 0 .984.177l-.984-.177Zm.654 2.136a.5.5 0 1 0-.988-.156l.988.156Zm-1.283 1.847a.5.5 0 1 0 .991.135l-.991-.135Zm.743 2.107a.499.499 0 1 0-.993-.115l.993.115Zm-1.204 1.893a.5.5 0 0 0 .995.094l-.995-.094Zm.829 2.083a.5.5 0 1 0-.998-.073l.998.073Zm-1.124 1.931a.5.5 0 0 0 .999.053l-.999-.053Zm.914 2.053a.5.5 0 0 0-.999-.032l.999.032Zm-1.042 1.976a.499.499 0 1 0 .999.011l-.999-.011Zm.998 2.011a.5.5 0 0 0-1 .01l1-.01Zm-.961 2.023a.501.501 0 0 0 1-.03l-1 .03Zm1.08 1.961a.5.5 0 0 0-.999.051l.999-.051Zm-.877 2.066a.5.5 0 1 0 .998-.071l-.998.071Zm1.158 1.91a.501.501 0 0 0-.996.09l.996-.09Zm-.793 2.103a.5.5 0 1 0 .994-.11l-.994.11Zm1.233 1.864a.499.499 0 1 0-.991.13l.991-.13Zm-.708 2.131a.5.5 0 1 0 .989-.15l-.989.15Zm1.306 1.817a.5.5 0 1 0-.985.169l.985-.169Zm-.625 2.152a.5.5 0 0 0 .982-.188l-.982.188Zm1.377 1.769a.5.5 0 1 0-.978.207l.978-.207Zm-.543 2.17a.5.5 0 1 0 .974-.225l-.974.225Zm1.445 1.719a.501.501 0 0 0-.97.244l.97-.244Zm-.461 2.185a.5.5 0 1 0 .965-.262l-.965.262Zm1.509 1.666a.5.5 0 1 0-.96.281l.96-.281Zm-.38 2.2a.501.501 0 0 0 .955-.299l-.955.299Zm1.571 1.61a.5.5 0 1 0-.949.316l.949-.316Zm-.298 2.214a.501.501 0 0 0 .943-.334l-.943.334Zm1.629 1.55a.5.5 0 0 0-.937.35l.937-.35Zm-.216 2.223a.5.5 0 1 0 .93-.367l-.93.367Zm1.683 1.49a.5.5 0 0 0-.923.384l.923-.384Zm-.136 2.229a.5.5 0 0 0 .917-.401l-.917.401Zm1.737 1.428a.502.502 0 0 0-.664-.246.502.502 0 0 0-.245.664l.909-.418Zm-.056 2.232a.5.5 0 1 0 .901-.434l-.901.434Zm1.788 1.365a.5.5 0 0 0-.893.451l.893-.451Zm.024 2.23a.5.5 0 0 0 .885-.466l-.885.466Zm1.838 1.302a.5.5 0 0 0-.876.483l.876-.483Zm.107 2.227c.137.24.443.322.682.184a.498.498 0 0 0 .184-.682l-.866.498Zm1.884 1.232a.5.5 0 0 0-.857.515l.857-.515Zm.194 2.228a.5.5 0 0 0 .848-.532l-.848.532Zm1.926 1.15a.5.5 0 0 0-.837.548l.837-.548Zm.287 2.226a.5.5 0 1 0 .825-.565l-.825.565Zm1.96 1.057a.499.499 0 1 0-.813.582l.813-.582Zm.388 2.222a.5.5 0 1 0 .8-.6l-.8.6Zm2.012.979a.5.5 0 1 0-.786.618l.786-.618Zm.473 2.181a.5.5 0 0 0 .771-.637l-.771.637Zm2.069.893a.5.5 0 1 0-.753.657l.753-.657Zm.541-135.193-.646.793.777.629c.213-.262.426-.525.642-.787l-.773-.635Zm-1.91 2.379a123.14 123.14 0 0 0-1.228 1.586l.796.606c.4-.525.806-1.05 1.218-1.574l-.786-.618Zm-2.423 3.178c-.406.549-.805 1.098-1.198 1.646l.813.582c.39-.544.786-1.089 1.189-1.634l-.804-.594Zm-2.357 3.292c-.38.549-.753 1.097-1.12 1.645l.831.557c.364-.544.734-1.088 1.111-1.632l-.822-.57Zm-2.236 3.341c-.368.568-.728 1.136-1.082 1.704l.849.529c.351-.563.708-1.126 1.073-1.69l-.84-.543Zm-2.124 3.406c-.349.581-.691 1.162-1.027 1.743l.866.5c.333-.576.672-1.152 1.018-1.728l-.857-.515Zm-2.022 3.501c-.325.586-.643 1.171-.954 1.756l.882.47c.309-.58.624-1.16.946-1.741l-.874-.485Zm-1.888 3.548c-.307.603-.608 1.206-.901 1.808l.899.438c.291-.597.588-1.194.893-1.792l-.891-.454Zm-1.76 3.614c-.285.614-.564 1.229-.835 1.842l.915.404c.269-.607.544-1.216.827-1.825l-.907-.421Zm-1.633 3.696c-.259.617-.511 1.234-.756 1.849l.93.37c.242-.61.491-1.221.748-1.832l-.922-.387Zm-1.486 3.741a98.442 98.442 0 0 0-.689 1.894l.943.332c.22-.624.447-1.249.682-1.875l-.936-.351Zm-1.337 3.787c-.213.645-.419 1.289-.618 1.933l.955.295c.197-.637.401-1.275.613-1.914l-.95-.314Zm-1.192 3.859c-.186.647-.364 1.294-.536 1.939l.967.256c.169-.638.346-1.278.53-1.919l-.961-.276Zm-1.034 3.899a96.152 96.152 0 0 0-.455 1.952l.976.217c.143-.643.293-1.287.45-1.932l-.971-.237Zm-.873 3.931a96.737 96.737 0 0 0-.375 1.98l.984.177c.117-.652.24-1.305.372-1.96l-.981-.197Zm-.709 3.96c-.105.669-.204 1.337-.295 2.003l.991.135c.09-.659.187-1.32.292-1.982l-.988-.156Zm-.545 3.995a93.718 93.718 0 0 0-.211 2.008l.995.094c.063-.66.132-1.323.209-1.987l-.993-.115Zm-.38 4.018c-.049.67-.091 1.338-.126 2.004l.999.053a89.5 89.5 0 0 1 .125-1.984l-.998-.073Zm-.211 4.025a90.31 90.31 0 0 0-.043 2.008l.999.011c.008-.66.022-1.322.043-1.987l-.999-.032Zm-.045 4.029c.006.673.019 1.345.039 2.013l1-.03a93.973 93.973 0 0 1-.039-1.993l-1 .01Zm.12 4.025c.034.674.075 1.346.122 2.015l.998-.071a92.874 92.874 0 0 1-.121-1.995l-.999.051Zm.284 4.015c.061.674.129 1.345.203 2.013l.994-.11a92.683 92.683 0 0 1-.201-1.993l-.996.09Zm.445 4.007c.088.671.182 1.337.283 2.001l.989-.15c-.1-.657-.193-1.317-.281-1.981l-.991.13Zm.604 3.987c.114.665.234 1.326.36 1.983l.982-.188c-.125-.651-.244-1.306-.357-1.964l-.985.169Zm.759 3.959c.139.659.284 1.313.435 1.963l.974-.225c-.149-.645-.293-1.293-.431-1.945l-.978.207Zm.91 3.926c.164.652.334 1.299.509 1.941l.965-.262a96.607 96.607 0 0 1-.504-1.923l-.97.244Zm1.058 3.888c.188.644.382 1.284.58 1.919l.955-.299a97.946 97.946 0 0 1-.575-1.901l-.96.281Zm1.202 3.845c.213.638.43 1.27.651 1.898l.943-.334c-.219-.621-.435-1.248-.645-1.88l-.949.316Zm1.343 3.798c.236.63.476 1.255.721 1.873l.93-.367a99.242 99.242 0 0 1-.714-1.856l-.937.35Zm1.481 3.747c.258.621.521 1.236.787 1.845l.917-.401c-.265-.603-.525-1.213-.781-1.828l-.923.384Zm1.615 3.691c.281.611.565 1.216.853 1.814l.901-.434c-.285-.592-.567-1.192-.845-1.798l-.909.418Zm1.748 3.63c.303.6.609 1.193.917 1.779l.885-.466c-.306-.581-.609-1.168-.909-1.764l-.893.451Zm1.879 3.564c.325.59.653 1.171.983 1.744l.866-.498c-.326-.568-.651-1.144-.973-1.729l-.876.483Zm2.01 3.491c.349.581.699 1.151 1.051 1.713l.848-.532c-.349-.556-.696-1.121-1.042-1.696l-.857.515Zm2.14 3.411c.374.57.749 1.13 1.124 1.678l.825-.565c-.371-.543-.742-1.097-1.112-1.661l-.837.548Zm2.271 3.317c.4.559.801 1.106 1.201 1.64l.8-.6a92.562 92.562 0 0 1-1.188-1.622l-.813.582Zm2.427 3.237c.421.536.841 1.057 1.259 1.563l.771-.637c-.413-.5-.828-1.014-1.244-1.544l-.786.618Zm2.575 3.113c.219.251.437.498.655.74l.744-.668c-.214-.238-.43-.482-.646-.729l-.753.657Z" fill="url(#a)"/><path d="m375.753 233.513 5.13-.513v4.617" stroke="url(#b)" stroke-linecap="round" stroke-linejoin="round" stroke-dasharray="2 2"/><path d="M498 0H332a2 2 0 0 0-2 2v276a2 2 0 0 0 2 2h166a2 2 0 0 0 2-2V2a2 2 0 0 0-2-2Z" fill="#0C133E" fill-opacity=".6"/><path d="M443.236 213h-49.472c-5.392 0-9.764 4.477-9.764 10s4.372 10 9.764 10h49.472c5.392 0 9.764-4.477 9.764-10s-4.372-10-9.764-10Z" fill="#36A269"/><path d="M429.686 209.334a.5.5 0 0 1-.745-.668l.745.668Zm-1.303-113.057a.5.5 0 0 1 .773-.635l-.773.635Zm1.414.153a.5.5 0 1 1-.778.627l.778-.627Zm.46 2.189a.5.5 0 1 1 .789-.614l-.789.614Zm1.993.96a.5.5 0 1 1-.799.601l.799-.6Zm.381 2.202a.5.5 0 1 1 .81-.586l-.81.586Zm1.97 1.049a.5.5 0 0 1-.821.571l.821-.571Zm.283 2.189a.5.5 0 1 1 .831-.555l-.831.555Zm1.936 1.134a.5.5 0 1 1-.842.539l.842-.539Zm.208 2.214a.5.5 0 0 1 .853-.523l-.853.523Zm1.876 1.185a.5.5 0 1 1-.863.505l.863-.505Zm.127 2.234a.5.5 0 1 1 .873-.487l-.873.487Zm1.823 1.257a.5.5 0 1 1-.883.47l.883-.47Zm.032 2.235a.5.5 0 0 1 .893-.45l-.893.45Zm1.774 1.345a.5.5 0 1 1-.902.431l.902-.431Zm-.073 2.219a.501.501 0 0 1 .912-.411l-.912.411Zm1.718 1.432a.5.5 0 1 1-.921.39l.921-.39Zm-.175 2.207a.5.5 0 1 1 .929-.369l-.929.369Zm1.651 1.511a.5.5 0 1 1-.937.347l.937-.347Zm-.273 2.205a.5.5 0 0 1 .945-.326l-.945.326Zm1.575 1.576a.5.5 0 1 1-.953.303l.953-.303Zm-.375 2.196a.5.5 0 0 1 .96-.28l-.96.28Zm1.496 1.643a.5.5 0 0 1-.966.257l.966-.257Zm-.479 2.18a.5.5 0 1 1 .972-.233l-.972.233Zm1.413 1.709a.5.5 0 0 1-.978.21l.978-.21Zm-.585 2.158a.5.5 0 1 1 .983-.186l-.983.186Zm1.328 1.776a.5.5 0 0 1-.987.161l.987-.161Zm-.691 2.126a.5.5 0 1 1 .99-.137l-.99.137Zm1.238 1.842a.5.5 0 1 1-.993.112l.993-.112Zm-.796 2.087a.5.5 0 0 1 .997-.087l-.997.087Zm1.146 1.903a.501.501 0 0 1-.998.063l.998-.063Zm-.898 2.043a.5.5 0 1 1 .999-.038l-.999.038Zm1.05 1.959a.501.501 0 0 1-1 .013l1-.013Zm-.998 1.995a.5.5 0 1 1 1 .011l-1-.011Zm.952 2.009a.499.499 0 1 1-.999-.036l.999.036Zm-1.094 1.944a.5.5 0 1 1 .998.06l-.998-.06Zm.854 2.052a.5.5 0 0 1-.996-.084l.996.084Zm-1.187 1.889a.5.5 0 1 1 .994.108l-.994-.108Zm.755 2.09a.5.5 0 1 1-.991-.132l.991.132Zm-1.275 1.832a.5.5 0 1 1 .988.155l-.988-.155Zm.656 2.121a.5.5 0 1 1-.984-.178l.984.178Zm-1.359 1.772a.499.499 0 1 1 .979.201l-.979-.201Zm.557 2.151a.501.501 0 0 1-.975-.223l.975.223Zm-1.439 1.706a.5.5 0 1 1 .969.245l-.969-.245Zm.458 2.176a.5.5 0 1 1-.964-.266l.964.266Zm-1.513 1.637a.5.5 0 1 1 .957.288l-.957-.288Zm.36 2.198a.5.5 0 0 1-.951-.309l.951.309Zm-1.583 1.564a.5.5 0 1 1 .944.33l-.944-.33Zm.262 2.215a.5.5 0 0 1-.937-.35l.937.35Zm-1.647 1.487a.5.5 0 1 1 .928.371l-.928-.371Zm.163 2.23a.5.5 0 0 1-.921-.391l.921.391Zm-1.712 1.42a.5.5 0 1 1 .911.41l-.911-.41Zm.07 2.226a.5.5 0 1 1-.902-.43l.902.43Zm-1.775 1.351a.5.5 0 0 1 .893.449l-.893-.449Zm-.022 2.219a.5.5 0 0 1-.883-.469l.883.469Zm-1.834 1.275a.5.5 0 0 1 .873.489l-.873-.489Zm-.125 2.225a.498.498 0 1 1-.861-.507l.861.507Zm-1.879 1.177a.5.5 0 1 1 .849.527l-.849-.527Zm-.231 2.224a.5.5 0 0 1-.837-.547l.837.547Zm-1.941 1.098a.5.5 0 0 1 .824.567l-.824-.567Zm-.329 2.198a.5.5 0 1 1-.809-.588l.809.588Zm-1.988.992a.5.5 0 1 1 .793.608l-.793-.608Zm-.456 2.188a.5.5 0 0 1-.775-.631l.775.631Zm-2.048.884a.5.5 0 1 1 .755.655l-.755-.655Zm-.426-112.298c.216.263.429.525.641.788l-.778.627c-.21-.26-.422-.52-.636-.78l.773-.635Zm1.89 2.363c.409.525.81 1.05 1.204 1.575l-.799.6c-.391-.52-.789-1.04-1.194-1.561l.789-.614Zm2.395 3.19c.394.545.781 1.09 1.16 1.635l-.821.571c-.376-.54-.759-1.08-1.149-1.62l.81-.586Zm2.274 3.269c.376.563.745 1.126 1.105 1.689l-.842.539c-.357-.557-.722-1.115-1.094-1.673l.831-.555Zm2.166 3.38c.349.57.69 1.139 1.023 1.708l-.863.505a97.969 97.969 0 0 0-1.013-1.69l.853-.523Zm2.023 3.455c.325.582.642 1.163.95 1.744l-.883.47a94.933 94.933 0 0 0-.94-1.727l.873-.487Zm1.875 3.529c.302.599.596 1.197.881 1.795l-.902.431a96.795 96.795 0 0 0-.872-1.776l.893-.45Zm1.72 3.603c.277.615.546 1.229.806 1.843l-.921.39a86.88 86.88 0 0 0-.797-1.822l.912-.411Zm1.56 3.681c.25.627.49 1.254.722 1.88l-.937.347a82.109 82.109 0 0 0-.714-1.858l.929-.369Zm1.394 3.759c.219.635.429 1.269.63 1.902l-.953.303a79.339 79.339 0 0 0-.622-1.879l.945-.326Zm1.215 3.818c.187.642.366 1.283.536 1.923l-.966.257a83.308 83.308 0 0 0-.53-1.9l.96-.28Zm1.029 3.87c.156.649.303 1.296.441 1.942l-.978.21a81.09 81.09 0 0 0-.435-1.919l.972-.233Zm.839 3.914c.123.656.238 1.31.345 1.962l-.987.161a79.486 79.486 0 0 0-.341-1.937l.983-.186Zm.644 3.951c.092.662.174 1.322.248 1.979l-.993.112a84.75 84.75 0 0 0-.245-1.954l.99-.137Zm.449 3.979c.058.666.108 1.329.149 1.99l-.998.063a78.166 78.166 0 0 0-.148-1.966l.997-.087Zm.25 3.995c.025.669.042 1.334.051 1.997l-1 .013a81.875 81.875 0 0 0-.05-1.972l.999-.038Zm.053 4.003a82.498 82.498 0 0 1-.048 1.998l-.999-.036c.024-.655.039-1.312.047-1.973l1 .011Zm-.144 4.002a81.12 81.12 0 0 1-.144 1.992l-.996-.084a84.31 84.31 0 0 0 .142-1.968l.998.06Zm-.337 3.989a84.457 84.457 0 0 1-.239 1.982l-.991-.132c.086-.649.165-1.302.236-1.958l.994.108Zm-.526 3.969a82.193 82.193 0 0 1-.332 1.966l-.984-.178a85.51 85.51 0 0 0 .328-1.943l.988.155Zm-.712 3.939a92.158 92.158 0 0 1-.422 1.95l-.975-.223c.146-.638.285-1.281.418-1.928l.979.201Zm-.892 3.901a86.467 86.467 0 0 1-.511 1.931l-.964-.266a86.03 86.03 0 0 0 .506-1.91l.969.245Zm-1.067 3.856a88.793 88.793 0 0 1-.597 1.91l-.951-.309c.202-.624.4-1.253.591-1.889l.957.288Zm-1.236 3.804c-.222.635-.45 1.263-.682 1.885l-.937-.35c.23-.615.455-1.237.675-1.865l.944.33Zm-1.401 3.743a92.42 92.42 0 0 1-.765 1.859l-.921-.391c.258-.606.51-1.219.758-1.839l.928.371Zm-1.566 3.689a89.66 89.66 0 0 1-.841 1.816l-.902-.43c.281-.591.559-1.19.832-1.796l.911.41Zm-1.723 3.616a86.088 86.088 0 0 1-.915 1.77l-.883-.469c.305-.575.607-1.158.905-1.75l.893.449Zm-1.876 3.534c-.33.589-.662 1.168-.998 1.736l-.861-.507c.331-.562.66-1.135.986-1.718l.873.489Zm-2.028 3.44a85.778 85.778 0 0 1-1.08 1.697l-.837-.547c.357-.547.714-1.106 1.068-1.677l.849.527Zm-2.197 3.362a78.318 78.318 0 0 1-1.153 1.631l-.809-.588c.38-.522.759-1.059 1.138-1.61l.824.567Zm-2.348 3.231a65.14 65.14 0 0 1-1.249 1.58l-.775-.631c.408-.501.819-1.021 1.231-1.557l.793.608Zm-2.542 3.119c-.218.252-.435.498-.651.739l-.745-.668c.213-.237.426-.479.641-.726l.755.655Z" fill="url(#c)"/><path d="M431.011 94.427 426.746 94v3.84" stroke="url(#d)" stroke-linecap="round" stroke-linejoin="round" stroke-dasharray="2 2"/><path d="M426.229 209.716a.351.351 0 0 1-.619-.329l.619.329Zm-8.95-33.207a.35.35 0 0 1 .418-.562l-.418.562Zm1.259.084a.35.35 0 0 1-.435.549l.435-.549Zm1.138 1.876a.35.35 0 1 1 .468-.52l-.468.52Zm1.987.94a.35.35 0 1 1-.502.488l.502-.488Zm.88 2.017a.35.35 0 1 1 .536-.45l-.536.45Zm1.827 1.214a.35.35 0 1 1-.569.407l.569-.407Zm.561 2.128a.35.35 0 1 1 .6-.36l-.6.36Zm1.609 1.491a.35.35 0 0 1-.628.309l.628-.309Zm.2 2.192a.35.35 0 1 1 .653-.254l-.653.254Zm1.335 1.745a.35.35 0 1 1-.671.198l.671-.198Zm-.176 2.189a.35.35 0 0 1 .686-.14l-.686.14Zm1.024 1.947a.351.351 0 0 1-.696.083l.696-.083Zm-.534 2.133a.35.35 0 1 1 .699-.027l-.699.027Zm.698 2.084a.35.35 0 0 1-.699-.027l.699.027Zm-.858 2.024a.35.35 0 0 1 .695.08l-.695-.08Zm.374 2.166a.35.35 0 1 1-.687-.132l.687.132Zm-1.15 1.873a.35.35 0 1 1 .675.183l-.675-.183Zm.045 2.195a.35.35 0 1 1-.659-.235l.659.235Zm-1.436 1.669a.35.35 0 0 1 .636.294l-.636-.294Zm-8.365-32.529c.287.214.567.429.841.646l-.435.549a32.448 32.448 0 0 0-.824-.633l.418-.562Zm2.447 2.002c.535.48 1.041.968 1.519 1.46l-.502.488a30.271 30.271 0 0 0-1.485-1.428l.468-.52Zm2.935 3.027c.461.55.891 1.104 1.291 1.664l-.569.407a27.249 27.249 0 0 0-1.258-1.621l.536-.45Zm2.452 3.432c.369.614.705 1.232 1.009 1.851l-.628.309a24.484 24.484 0 0 0-.981-1.8l.6-.36Zm1.862 3.789c.26.667.486 1.334.682 1.999l-.671.198a24.23 24.23 0 0 0-.664-1.943l.653-.254Zm1.192 4.048c.144.701.255 1.398.338 2.087l-.696.083a24.532 24.532 0 0 0-.328-2.03l.686-.14Zm.503 4.193c.028.716.026 1.42-.001 2.111l-.699-.027c.026-.674.028-1.36.001-2.057l.699-.027Zm-.164 4.215a28.024 28.024 0 0 1-.321 2.086l-.687-.132c.126-.657.232-1.336.313-2.034l.695.08Zm-.796 4.142c-.191.707-.404 1.38-.63 2.012l-.659-.235c.22-.616.427-1.271.614-1.96l.675.183Zm-1.43 3.975c-.155.333-.312.649-.469.946l-.619-.329c.152-.285.303-.589.452-.911l.636.294Z" fill="url(#e)"/><path d="M423 72h-74a1 1 0 0 0-1 1v17a1 1 0 0 0 1 1h74a1 1 0 0 0 1-1V73a1 1 0 0 0-1-1Z" fill="#fff" fill-opacity=".15"/><path d="M423 72.1h-74a.9.9 0 0 0-.9.9v17a.9.9 0 0 0 .9.9h74a.9.9 0 0 0 .9-.9V73a.9.9 0 0 0-.9-.9Z" stroke="#fff" stroke-opacity=".19" stroke-width=".2"/><path d="M359.5 88a6.5 6.5 0 1 0 0-13 6.5 6.5 0 0 0 0 13Z" fill="#4A6CF7"/><path d="M357.167 79.75h4.666v2.916h-4.666V79.75Zm4.666 3.5a.585.585 0 0 0 .584-.584V79.75a.584.584 0 0 0-.584-.584h-4.666a.582.582 0 0 0-.584.584v2.916a.585.585 0 0 0 .584.584H356v.583h7v-.583h-1.167Z" fill="#fff"/><path d="m405.209 141.217-31.233 6.965a1 1 0 0 0-.758 1.194l6.965 31.233a1 1 0 0 0 1.193.758l31.233-6.965a.998.998 0 0 0 .758-1.193l-6.964-31.233a1.001 1.001 0 0 0-1.194-.759Z" fill="#4A6CF7"/><path d="M395.47 171.053c5.39-1.202 8.785-6.546 7.583-11.937-1.202-5.39-6.546-8.785-11.937-7.583-5.39 1.202-8.785 6.546-7.583 11.936 1.202 5.391 6.546 8.786 11.937 7.584Z" fill="#fff"/><path d="m398.281 159.94-2.025-1.286c-.15-.096-.241-.033-.202.142l.379 1.7-1.894.423a1.3 1.3 0 0 0-1.445-.919l-.419-1.881 1.7-.379c.175-.039.194-.147.043-.243l-2.025-1.287a.323.323 0 0 0-.445.099l-1.287 2.026c-.096.15-.032.241.142.202l1.701-.379.419 1.879a1.3 1.3 0 0 0-.918 1.446l-1.894.422-.379-1.699c-.039-.175-.148-.194-.243-.043l-1.287 2.025a.322.322 0 0 0 .099.445l2.025 1.287c.151.095.241.032.202-.142l-.379-1.702 1.891-.422a1.3 1.3 0 0 0 1.446.918l.422 1.892-1.7.379c-.174.039-.193.148-.043.243l2.026 1.287c.15.095.349.051.445-.099l1.287-2.026c.095-.15.032-.241-.143-.202l-1.698.379-.421-1.889a1.3 1.3 0 0 0 .918-1.445l1.892-.422.379 1.7c.039.175.147.194.243.043l1.287-2.025a.324.324 0 0 0-.099-.447Z" fill="#4A6CF7"/><g opacity=".08"><path opacity=".08" d="M478 32h-79a1 1 0 0 0-1 1v18a1 1 0 0 0 1 1h79a1 1 0 0 0 1-1V33a1 1 0 0 0-1-1Z" fill="#fff"/><path opacity=".08" d="M478 32.1h-79a.9.9 0 0 0-.9.9v18a.9.9 0 0 0 .9.9h79a.9.9 0 0 0 .9-.9V33a.9.9 0 0 0-.9-.9Z" stroke="#fff" stroke-opacity=".19" stroke-width=".2"/></g><path d="M475 35h-12a1 1 0 0 0-1 1v12a1 1 0 0 0 1 1h12a1 1 0 0 0 1-1V36a1 1 0 0 0-1-1Z" fill="#4A6CF7"/><path d="M468.998 38a4 4 0 1 0 .003 7.999 4 4 0 0 0-.003-7.999Zm.002 7.524a3.524 3.524 0 1 1 0-7.049 3.524 3.524 0 0 1 0 7.049Zm0-6.596v6.141a3.074 3.074 0 0 0 3.071-3.07c0-1.691-1.377-3.071-3.071-3.071Z" fill="#fff"/><path opacity=".5" d="M398 43.75a1.75 1.75 0 1 0 0-3.5 1.75 1.75 0 0 0 0 3.5Z" fill="#282C4D" stroke="#fff" stroke-width=".5"/><path d="M347 41.75h49" stroke="url(#f)" stroke-width=".5"/><path d="M373.422 81.023c0 .216-.051.42-.152.61a1.167 1.167 0 0 1-.488.47c-.224.118-.511.177-.86.177h-.769V84h-.695v-4.24h1.464c.325 0 .599.057.823.171.228.11.397.26.506.452.114.19.171.404.171.64Zm-1.5.69c.264 0 .461-.06.591-.177.13-.122.195-.293.195-.513 0-.463-.262-.695-.786-.695h-.769v1.385h.769Zm2.859-2.227V84h-.696v-4.514h.696Zm2.609 1.098c.264 0 .5.055.707.165.212.11.376.272.494.488.118.215.177.476.177.78V84h-.689v-1.879c0-.3-.075-.53-.226-.69-.15-.162-.356-.243-.616-.243s-.468.081-.622.244c-.151.159-.226.388-.226.69V84h-.695v-3.361h.695v.384c.114-.138.258-.246.433-.323.179-.077.368-.116.568-.116Zm5.346 1.653c0 .126-.008.24-.025.342h-2.568c.02.268.12.484.299.646a.944.944 0 0 0 .659.244c.374 0 .638-.156.793-.47h.75c-.102.31-.287.564-.555.763-.264.195-.594.293-.988.293-.321 0-.61-.071-.866-.214a1.594 1.594 0 0 1-.598-.61 1.904 1.904 0 0 1-.214-.915 1.9 1.9 0 0 1 .208-.909c.142-.264.339-.467.591-.61.257-.142.549-.213.879-.213.317 0 .6.07.848.207.248.139.441.334.579.586.139.248.208.535.208.86Zm-.726-.22a.791.791 0 0 0-.275-.616.98.98 0 0 0-.665-.231.886.886 0 0 0-.616.231.945.945 0 0 0-.305.617h1.861Zm-.055-2.122-.872.506-.873-.506v-.543l.873.524.872-.524v.543Zm3.745 1.232c.102-.17.236-.303.403-.397.17-.097.372-.146.603-.146v.72h-.176c-.273 0-.48.069-.623.207-.138.139-.207.378-.207.72V84h-.695v-3.361h.695v.488Zm4.726 1.11c0 .126-.008.24-.024.342h-2.568c.02.268.12.484.299.646a.942.942 0 0 0 .658.244c.375 0 .639-.156.793-.47h.751c-.102.31-.287.564-.555.763-.265.195-.594.293-.989.293-.321 0-.61-.071-.866-.214a1.601 1.601 0 0 1-.598-.61 1.904 1.904 0 0 1-.213-.915c0-.345.069-.648.207-.909.143-.264.34-.467.592-.61.256-.142.549-.213.878-.213.318 0 .6.07.848.207.248.139.442.334.58.586.138.248.207.535.207.86Zm-.726-.22a.79.79 0 0 0-.274-.616.983.983 0 0 0-.665-.231.886.886 0 0 0-.616.231.94.94 0 0 0-.305.617h1.86Zm2.631 2.038c-.265 0-.503-.047-.714-.14a1.284 1.284 0 0 1-.494-.39.986.986 0 0 1-.195-.556h.719c.013.142.08.262.202.36.126.094.282.14.469.14.196 0 .346-.036.452-.11a.345.345 0 0 0 .164-.292c0-.126-.061-.22-.183-.28a3.259 3.259 0 0 0-.567-.202 5.525 5.525 0 0 1-.616-.201 1.104 1.104 0 0 1-.415-.3c-.114-.134-.171-.31-.171-.53 0-.179.053-.342.159-.488a1.05 1.05 0 0 1 .451-.354c.2-.085.427-.128.684-.128.382 0 .689.098.921.293.236.19.362.453.378.787h-.695a.501.501 0 0 0-.183-.36c-.11-.09-.259-.134-.446-.134-.183 0-.323.034-.421.103a.322.322 0 0 0-.146.275c0 .09.032.165.098.225.065.062.144.11.237.147.094.032.232.075.415.128.244.065.443.132.598.201.159.065.295.163.409.293.114.13.173.303.177.519a.868.868 0 0 1-.159.512 1.05 1.05 0 0 1-.451.354 1.652 1.652 0 0 1-.677.128Zm2.733-2.922a1.475 1.475 0 0 1 1.172-.549c.292 0 .559.073.799.22.244.142.435.343.573.603.138.26.208.56.208.897 0 .338-.07.64-.208.91a1.567 1.567 0 0 1-.573.621c-.24.147-.507.22-.799.22-.257 0-.484-.05-.684-.153a1.57 1.57 0 0 1-.488-.39v2.086h-.695v-4.96h.695v.495Zm2.044 1.171c0-.232-.049-.43-.146-.598a.934.934 0 0 0-.379-.384 1.003 1.003 0 0 0-1 0 1.02 1.02 0 0 0-.378.39c-.094.171-.141.373-.141.604 0 .232.047.435.141.61.097.171.223.301.378.39a1.003 1.003 0 0 0 1 0c.159-.093.285-.227.379-.402.097-.175.146-.378.146-.61Zm2.853 1.75a1.74 1.74 0 0 1-.86-.213 1.588 1.588 0 0 1-.604-.61 1.861 1.861 0 0 1-.219-.915c0-.341.075-.644.225-.909.151-.264.356-.467.616-.61a1.79 1.79 0 0 1 .873-.213c.321 0 .612.071.872.213.26.143.466.346.616.61.15.265.226.568.226.91 0 .341-.078.644-.232.908-.155.265-.366.47-.634.616a1.828 1.828 0 0 1-.879.214Zm0-.603c.179 0 .346-.043.5-.128a.972.972 0 0 0 .385-.384c.097-.171.146-.379.146-.623s-.047-.449-.14-.616a.949.949 0 0 0-.372-.384 1.022 1.022 0 0 0-.501-.128c-.179 0-.345.043-.5.128a.923.923 0 0 0-.36.384 1.295 1.295 0 0 0-.134.616c0 .362.092.643.275.842a.931.931 0 0 0 .701.293Zm4.128-2.867c.264 0 .5.055.708.165.211.11.376.272.494.488.118.215.177.476.177.78V84h-.69v-1.879c0-.3-.075-.53-.225-.69-.151-.162-.356-.243-.617-.243-.26 0-.467.081-.622.244-.15.159-.225.388-.225.69V84h-.696v-3.361h.696v.384c.113-.138.258-.246.433-.323.179-.077.368-.116.567-.116Zm2.882 2.849h1.525V84h-2.331v-.567l1.532-2.227h-1.532v-.567h2.331v.567l-1.525 2.227Zm2.609-3.24a.434.434 0 0 1-.318-.127.432.432 0 0 1-.128-.318c0-.126.043-.232.128-.317a.434.434 0 0 1 .318-.128c.122 0 .225.043.311.128a.432.432 0 0 1 .128.317.432.432 0 0 1-.128.317.424.424 0 0 1-.311.129Zm.341.446V84h-.695v-3.361h.695Zm2.213 2.739.951-2.74h.738L412.542 84h-.829l-1.275-3.361h.744l.952 2.739Zm3.911-2.794c.264 0 .5.055.707.165.212.11.376.272.494.488.118.215.177.476.177.78V84h-.689v-1.879c0-.3-.075-.53-.226-.69-.15-.162-.356-.243-.616-.243s-.467.081-.622.244c-.15.159-.226.388-.226.69V84h-.695v-3.361h.695v.384c.114-.138.259-.246.433-.323.179-.077.368-.116.568-.116Zm2.961.055V84h-.696v-3.361h.696Zm.28-.903-1.348.665v-.512l1.348-.745v.592ZM399.055 220.787 397.098 226h-.99l-1.965-5.213h.915l1.545 4.335 1.552-4.335h.9Zm.43 3.128c0-.415.085-.783.255-1.103a1.903 1.903 0 0 1 1.695-1.012c.325 0 .608.065.848.195.245.125.44.282.585.472v-.599h.862V226h-.862v-.615a1.699 1.699 0 0 1-.593.487c-.25.131-.535.196-.855.196-.355 0-.68-.09-.975-.271a2.004 2.004 0 0 1-.705-.765 2.402 2.402 0 0 1-.255-1.117Zm3.383.015c0-.285-.06-.533-.18-.743a1.212 1.212 0 0 0-1.688-.48 1.21 1.21 0 0 0-.465.473 1.48 1.48 0 0 0-.172.735c0 .285.057.535.172.75.12.215.275.38.465.495a1.234 1.234 0 0 0 1.23 0c.19-.11.343-.27.458-.48.12-.215.18-.465.18-.75Zm3.485 2.138c-.325 0-.617-.058-.877-.173a1.587 1.587 0 0 1-.608-.48 1.216 1.216 0 0 1-.24-.683h.885a.62.62 0 0 0 .248.443.94.94 0 0 0 .577.172c.24 0 .425-.045.555-.135.135-.095.203-.215.203-.36 0-.155-.075-.27-.225-.345a4.017 4.017 0 0 0-.698-.247 6.744 6.744 0 0 1-.757-.248 1.358 1.358 0 0 1-.51-.367c-.14-.165-.21-.383-.21-.653 0-.22.065-.42.195-.6.13-.185.315-.33.555-.435.245-.105.525-.157.84-.157.47 0 .847.12 1.132.36.29.235.445.557.465.967h-.855a.608.608 0 0 0-.225-.442c-.135-.11-.317-.165-.547-.165-.225 0-.398.042-.518.127a.396.396 0 0 0-.18.338c0 .11.04.202.12.277.08.075.178.135.293.18.115.04.285.093.51.158.3.08.545.162.735.247.195.08.362.2.502.36.14.16.213.373.218.638 0 .235-.065.445-.195.63a1.29 1.29 0 0 1-.555.435 2.03 2.03 0 0 1-.833.158Zm1.005-5.183-1.072.622-1.073-.622v-.668l1.073.645 1.072-.645v.668Zm5.289 2.947c0 .155-.01.295-.03.42h-3.158c.025.33.148.595.368.795.22.2.49.3.81.3.46 0 .785-.192.975-.577h.922c-.125.38-.352.692-.682.937-.325.241-.73.361-1.215.361-.395 0-.75-.088-1.065-.263-.31-.18-.555-.43-.735-.75a2.336 2.336 0 0 1-.263-1.125c0-.425.085-.798.255-1.118.175-.325.418-.575.728-.75a2.186 2.186 0 0 1 1.08-.262c.39 0 .737.085 1.042.255.305.17.543.41.713.72.17.305.255.657.255 1.057Zm-.893-.27a.972.972 0 0 0-.337-.757 1.208 1.208 0 0 0-.818-.285c-.295 0-.547.095-.757.285-.21.185-.335.437-.375.757h2.287Zm5.183 2.506a2.15 2.15 0 0 1-.878-.173 1.583 1.583 0 0 1-.607-.48 1.216 1.216 0 0 1-.24-.683h.885a.62.62 0 0 0 .247.443.944.944 0 0 0 .578.172c.24 0 .425-.045.555-.135.135-.095.202-.215.202-.36 0-.155-.075-.27-.225-.345a4 4 0 0 0-.697-.247 6.77 6.77 0 0 1-.758-.248 1.358 1.358 0 0 1-.51-.367c-.14-.165-.21-.383-.21-.653 0-.22.065-.42.195-.6.13-.185.315-.33.555-.435.245-.105.525-.157.84-.157.47 0 .848.12 1.133.36.29.235.445.557.465.967h-.855a.608.608 0 0 0-.225-.442c-.135-.11-.318-.165-.548-.165-.225 0-.397.042-.517.127a.396.396 0 0 0-.18.338c0 .11.04.202.12.277a.9.9 0 0 0 .292.18c.115.04.285.093.51.158.3.08.545.162.735.247.195.08.363.2.503.36.14.16.212.373.217.638 0 .235-.065.445-.195.63a1.29 1.29 0 0 1-.555.435 2.025 2.025 0 0 1-.832.158Zm3.503-3.503v2.287c0 .155.035.268.105.338.075.065.2.097.375.097h.525V226h-.675c-.385 0-.68-.09-.885-.27-.205-.18-.307-.473-.307-.878v-2.287h-.488v-.697h.488v-1.028h.862v1.028h1.005v.697h-1.005Zm2.648-.098c.125-.21.29-.372.495-.487.21-.12.458-.18.743-.18v.885h-.218c-.335 0-.59.085-.765.255-.17.17-.255.465-.255.885V226h-.855v-4.132h.855v.599Zm1.739 1.448c0-.415.085-.783.255-1.103a1.903 1.903 0 0 1 1.695-1.012c.325 0 .607.065.847.195.245.125.44.282.585.472v-.599h.863V226h-.863v-.615a1.695 1.695 0 0 1-.592.487c-.25.131-.535.196-.855.196-.355 0-.68-.09-.975-.271a2.004 2.004 0 0 1-.705-.765 2.402 2.402 0 0 1-.255-1.117Zm3.382.015c0-.285-.06-.533-.18-.743a1.207 1.207 0 0 0-1.072-.645c-.22 0-.425.055-.615.165a1.21 1.21 0 0 0-.465.473 1.48 1.48 0 0 0-.173.735c0 .285.058.535.173.75.12.215.275.38.465.495a1.234 1.234 0 0 0 1.23 0c.19-.11.342-.27.457-.48.12-.215.18-.465.18-.75Zm-.345-3.173-1.657.818v-.63l1.657-.915v.727Zm4.416 1.043c.325 0 .615.067.87.202.26.135.462.335.607.6.145.265.218.585.218.96V226h-.848v-2.31c0-.37-.092-.653-.277-.848-.185-.2-.438-.3-.758-.3s-.575.1-.765.3c-.185.195-.277.478-.277.848V226h-.855v-4.132h.855v.472c.14-.17.317-.303.532-.398.22-.095.453-.142.698-.142Zm4.42 2.137 1.905 2.063h-1.155l-1.53-1.778V226h-.855v-5.55h.855v3.225l1.5-1.807h1.185l-1.905 2.069Zm2.233-.022c0-.415.085-.783.255-1.103a1.903 1.903 0 0 1 1.695-1.012c.325 0 .608.065.848.195.245.125.44.282.585.472v-.599h.862V226h-.862v-.615a1.699 1.699 0 0 1-.593.487c-.25.131-.535.196-.855.196-.355 0-.68-.09-.975-.271a2.004 2.004 0 0 1-.705-.765 2.402 2.402 0 0 1-.255-1.117Zm3.383.015c0-.285-.06-.533-.18-.743a1.212 1.212 0 0 0-1.688-.48 1.21 1.21 0 0 0-.465.473 1.48 1.48 0 0 0-.172.735c0 .285.057.535.172.75.12.215.275.38.465.495a1.234 1.234 0 0 0 1.23 0c.19-.11.343-.27.458-.48.12-.215.18-.465.18-.75ZM407.876 44h-.684l-2.058-3.114V44h-.684v-4.176h.684l2.058 3.108v-3.108h.684V44Zm3.928-1.734c0 .124-.008.236-.024.336h-2.526c.02.264.118.476.294.636.176.16.392.24.648.24.368 0 .628-.154.78-.462h.738a1.5 1.5 0 0 1-.546.75c-.26.192-.584.288-.972.288-.316 0-.6-.07-.852-.21a1.57 1.57 0 0 1-.588-.6c-.14-.26-.21-.56-.21-.9 0-.34.068-.638.204-.894.14-.26.334-.46.582-.6.252-.14.54-.21.864-.21.312 0 .59.068.834.204.244.136.434.328.57.576.136.244.204.526.204.846Zm-.714-.216a.778.778 0 0 0-.27-.606.965.965 0 0 0-.654-.228.872.872 0 0 0-.606.228.928.928 0 0 0-.3.606h1.83Zm4.381-1.356V44h-.684v-.39c-.108.136-.25.244-.426.324a1.35 1.35 0 0 1-.552.114 1.5 1.5 0 0 1-.702-.162 1.194 1.194 0 0 1-.486-.48 1.579 1.579 0 0 1-.174-.768v-1.944h.678v1.842c0 .296.074.524.222.684.148.156.35.234.606.234s.458-.078.606-.234c.152-.16.228-.388.228-.684v-1.842h.684Zm2.103 3.36c-.26 0-.494-.046-.702-.138a1.268 1.268 0 0 1-.486-.384.972.972 0 0 1-.192-.546h.708c.012.14.078.258.198.354a.754.754 0 0 0 .462.138c.192 0 .34-.036.444-.108.108-.076.162-.172.162-.288 0-.124-.06-.216-.18-.276a3.2 3.2 0 0 0-.558-.198 5.415 5.415 0 0 1-.606-.198 1.088 1.088 0 0 1-.408-.294c-.112-.132-.168-.306-.168-.522a.8.8 0 0 1 .156-.48c.104-.148.252-.264.444-.348.196-.084.42-.126.672-.126.376 0 .678.096.906.288.232.188.356.446.372.774h-.684a.487.487 0 0 0-.18-.354c-.108-.088-.254-.132-.438-.132-.18 0-.318.034-.414.102a.316.316 0 0 0-.144.27c0 .088.032.162.096.222s.142.108.234.144c.092.032.228.074.408.126.24.064.436.13.588.198.156.064.29.16.402.288.112.128.17.298.174.51a.855.855 0 0 1-.156.504 1.032 1.032 0 0 1-.444.348c-.188.084-.41.126-.666.126Zm2.803-2.802v1.83c0 .124.028.214.084.27.06.052.16.078.3.078h.42V44h-.54c-.308 0-.544-.072-.708-.216-.164-.144-.246-.378-.246-.702v-1.83h-.39v-.558h.39v-.822h.69v.822h.804v.558h-.804Zm1.206 1.08c0-.332.068-.626.204-.882a1.524 1.524 0 0 1 1.356-.81c.26 0 .486.052.678.156.196.1.352.226.468.378v-.48h.69V44h-.69v-.492a1.358 1.358 0 0 1-.474.39 1.46 1.46 0 0 1-.684.156c-.284 0-.544-.072-.78-.216a1.603 1.603 0 0 1-.564-.612 1.924 1.924 0 0 1-.204-.894Zm2.706.012c0-.228-.048-.426-.144-.594a.97.97 0 0 0-1.35-.384.966.966 0 0 0-.372.378c-.092.164-.138.36-.138.588 0 .228.046.428.138.6.096.172.22.304.372.396a.987.987 0 0 0 .984 0 .97.97 0 0 0 .366-.384 1.21 1.21 0 0 0 .144-.6Zm-.276-2.538-1.326.654v-.504l1.326-.732v.582Zm2.549-.246V44h-.684v-4.44h.684Zm3.928 2.706c0 .124-.008.236-.024.336h-2.526c.02.264.118.476.294.636.176.16.392.24.648.24.368 0 .628-.154.78-.462h.738a1.5 1.5 0 0 1-.546.75c-.26.192-.584.288-.972.288-.316 0-.6-.07-.852-.21a1.57 1.57 0 0 1-.588-.6c-.14-.26-.21-.56-.21-.9 0-.34.068-.638.204-.894.14-.26.334-.46.582-.6.252-.14.54-.21.864-.21.312 0 .59.068.834.204.244.136.434.328.57.576.136.244.204.526.204.846Zm-.714-.216a.778.778 0 0 0-.27-.606.965.965 0 0 0-.654-.228.872.872 0 0 0-.606.228.928.928 0 0 0-.3.606h1.83Zm2.717.282c0-.332.068-.626.204-.882a1.524 1.524 0 0 1 1.356-.81c.26 0 .486.052.678.156.196.1.352.226.468.378v-.48h.69V44h-.69v-.492a1.358 1.358 0 0 1-.474.39 1.46 1.46 0 0 1-.684.156c-.284 0-.544-.072-.78-.216a1.603 1.603 0 0 1-.564-.612 1.924 1.924 0 0 1-.204-.894Zm2.706.012c0-.228-.048-.426-.144-.594a.97.97 0 0 0-1.35-.384.966.966 0 0 0-.372.378c-.092.164-.138.36-.138.588 0 .228.046.428.138.6.096.172.22.304.372.396a.987.987 0 0 0 .984 0 .97.97 0 0 0 .366-.384 1.21 1.21 0 0 0 .144-.6Zm2.897.006L439.62 44h-.924l-1.224-1.422V44h-.684v-4.44h.684v2.58l1.2-1.446h.948l-1.524 1.656Zm2.812-1.098v1.83c0 .124.028.214.084.27.06.052.16.078.3.078h.42V44h-.54c-.308 0-.544-.072-.708-.216-.164-.144-.246-.378-.246-.702v-1.83h-.39v-.558h.39v-.822h.69v.822h.804v.558h-.804Zm4.429-.558V44h-.684v-.39c-.108.136-.25.244-.426.324a1.35 1.35 0 0 1-.552.114 1.5 1.5 0 0 1-.702-.162 1.194 1.194 0 0 1-.486-.48 1.579 1.579 0 0 1-.174-.768v-1.944h.678v1.842c0 .296.074.524.222.684.148.156.35.234.606.234s.458-.078.606-.234c.152-.16.228-.388.228-.684v-1.842h.684Zm.674 1.638c0-.332.068-.626.204-.882a1.524 1.524 0 0 1 1.356-.81c.26 0 .486.052.678.156.196.1.352.226.468.378v-.48h.69V44h-.69v-.492a1.358 1.358 0 0 1-.474.39 1.46 1.46 0 0 1-.684.156c-.284 0-.544-.072-.78-.216a1.603 1.603 0 0 1-.564-.612 1.924 1.924 0 0 1-.204-.894Zm2.706.012c0-.228-.048-.426-.144-.594a.97.97 0 0 0-1.35-.384.966.966 0 0 0-.372.378c-.092.164-.138.36-.138.588 0 .228.046.428.138.6.096.172.22.304.372.396a.987.987 0 0 0 .984 0 .97.97 0 0 0 .366-.384 1.21 1.21 0 0 0 .144-.6Zm-.276-2.538-1.326.654v-.504l1.326-.732v.582Zm2.548-.246V44h-.684v-4.44h.684Zm2.567 1.08c.26 0 .492.054.696.162.208.108.37.268.486.48.116.212.174.468.174.768V44h-.678v-1.848c0-.296-.074-.522-.222-.678-.148-.16-.35-.24-.606-.24s-.46.08-.612.24c-.148.156-.222.382-.222.678V44h-.684v-3.306h.684v.378c.112-.136.254-.242.426-.318.176-.076.362-.114.558-.114Zm2.912.054V44h-.684v-3.306h.684Zm.276-.888-1.326.654v-.504l1.326-.732v.582Z" fill="#fff"/><defs><linearGradient id="a" x1="374.3" y1="234.975" x2="361.897" y2="369.833" gradientUnits="userSpaceOnUse"><stop stop-color="#fff" stop-opacity=".48"/><stop offset="1" stop-color="#fff" stop-opacity="0"/></linearGradient><linearGradient id="b" x1="378.318" y1="233" x2="378.318" y2="237.617" gradientUnits="userSpaceOnUse"><stop stop-color="#fff" stop-opacity=".55"/><stop offset="1" stop-color="#fff" stop-opacity=".62"/></linearGradient><linearGradient id="c" x1="432.22" y1="95.642" x2="442.533" y2="207.784" gradientUnits="userSpaceOnUse"><stop stop-color="#fff" stop-opacity=".48"/><stop offset="1" stop-color="#fff" stop-opacity="0"/></linearGradient><linearGradient id="d" x1="428.878" y1="94" x2="428.878" y2="97.839" gradientUnits="userSpaceOnUse"><stop stop-color="#fff" stop-opacity=".55"/><stop offset="1" stop-color="#fff" stop-opacity=".62"/></linearGradient><linearGradient id="e" x1="418.483" y1="175.882" x2="429.732" y2="208.225" gradientUnits="userSpaceOnUse"><stop stop-color="#fff" stop-opacity=".48"/><stop offset="1" stop-color="#fff" stop-opacity="0"/></linearGradient><linearGradient id="f" x1="-nan" y1="-nan" x2="-nan" y2="-nan" gradientUnits="userSpaceOnUse"><stop stop-color="#fff" stop-opacity=".28"/><stop offset="1" stop-color="#fff" stop-opacity="0"/></linearGradient></defs></svg>