<svg width="1080" height="1080" viewBox="0 0 2819 2819" fill="none" xmlns="http://www.w3.org/2000/svg">
<g opacity="0.8" filter="url(#filter0_f_27952_179215)">
<path d="M2008.32 999.805L1826.24 1181.9C1820.52 1187.61 1813.04 1191.24 1805.01 1192.2C1796.98 1193.16 1788.86 1191.4 1781.96 1187.19C1710.33 1143.98 1627.73 1122.43 1544.12 1125.14C1460.52 1127.85 1379.48 1154.71 1310.81 1202.47C1268.57 1231.88 1231.9 1268.55 1202.5 1310.79C1154.8 1379.51 1127.96 1460.55 1125.23 1544.16C1122.5 1627.77 1143.98 1710.39 1187.1 1782.08C1191.27 1788.98 1193.02 1797.07 1192.06 1805.08C1191.1 1813.08 1187.49 1820.54 1181.8 1826.25L999.72 2008.34C996.053 2012.03 991.633 2014.89 986.76 2016.71C981.888 2018.53 976.679 2019.28 971.49 2018.9C966.301 2018.53 961.255 2017.03 956.698 2014.52C952.14 2012.02 948.178 2008.55 945.084 2004.37C846.567 1868.95 795.654 1704.72 800.291 1537.32C804.928 1369.91 864.855 1208.75 970.717 1079C1003.04 1039.29 1039.33 1003 1079.03 970.68C1208.77 864.841 1369.9 804.928 1537.26 800.291C1704.63 795.654 1868.83 846.552 2004.23 945.045C2008.44 948.13 2011.93 952.09 2014.47 956.654C2017 961.218 2018.51 966.277 2018.9 971.482C2019.29 976.687 2018.54 981.914 2016.72 986.804C2014.89 991.694 2012.03 996.129 2008.32 999.805Z" fill="url(#paint0_linear_27952_179215)"/>
</g>
<defs>
<filter id="filter0_f_27952_179215" x="0" y="0" width="2819" height="2819" filterUnits="userSpaceOnUse" color-interpolation-filters="sRGB">
<feFlood flood-opacity="0" result="BackgroundImageFix"/>
<feBlend mode="normal" in="SourceGraphic" in2="BackgroundImageFix" result="shape"/>
<feGaussianBlur stdDeviation="400" result="effect1_foregroundBlur_27952_179215"/>
</filter>
<linearGradient id="paint0_linear_27952_179215" x1="1837.19" y1="688.819" x2="301.523" y2="2224.53" gradientUnits="userSpaceOnUse">
<stop stop-color="#17CCFC"/>
<stop offset="0.5" stop-color="#5D31FF"/>
<stop offset="1" stop-color="#F35AFF"/>
</linearGradient>
</defs>
</svg>
