<svg xmlns="http://www.w3.org/2000/svg" version="1.1" xmlns:xlink="http://www.w3.org/1999/xlink" xmlns:svgjs="http://svgjs.com/svgjs" width="1440" height="560" preserveAspectRatio="none" viewBox="0 0 1440 560"><g mask="url(&quot;#SvgjsMask1002&quot;)" fill="none"><path d="M-86.13 385.09L-86.13 385.09" stroke="#132e65" stroke-width="1.5"></path><path d="M-86.13 385.09L-61.68 501.52" stroke="#132e65" stroke-width="1.5"></path><path d="M-86.13 385.09L68.98 405.02" stroke="#132e65" stroke-width="1.5"></path><path d="M-86.13 385.09L61.39 545.31" stroke="#132e65" stroke-width="1.5"></path><path d="M-86.13 385.09L-87.55 669.04" stroke="#132e65" stroke-width="1.5"></path><path d="M-86.13 385.09L58.26 647.66" stroke="#132e65" stroke-width="1.5"></path><path d="M-86.13 385.09L237.56 353.57" stroke="#132e65" stroke-width="1.5"></path><path d="M-61.68 501.52L-61.68 501.52" stroke="#132e65" stroke-width="1.5"></path><path d="M-61.68 501.52L61.39 545.31" stroke="#132e65" stroke-width="1.5"></path><path d="M-61.68 501.52L68.98 405.02" stroke="#132e65" stroke-width="1.5"></path><path d="M-87.55 669.04L-87.55 669.04" stroke="#132e65" stroke-width="1.5"></path><path d="M-87.55 669.04L58.26 647.66" stroke="#132e65" stroke-width="1.5"></path><path d="M-87.55 669.04L-61.68 501.52" stroke="#132e65" stroke-width="1.5"></path><path d="M-87.55 669.04L61.39 545.31" stroke="#132e65" stroke-width="1.5"></path><path d="M-87.55 669.04L216.96 692.12" stroke="#132e65" stroke-width="1.5"></path><path d="M-87.55 669.04L68.98 405.02" stroke="#132e65" stroke-width="1.5"></path><path d="M68.98 405.02L68.98 405.02" stroke="#132e65" stroke-width="1.5"></path><path d="M68.98 405.02L61.39 545.31" stroke="#132e65" stroke-width="1.5"></path><path d="M68.98 405.02L237.56 353.57" stroke="#132e65" stroke-width="1.5"></path><path d="M68.98 405.02L222 515" stroke="#132e65" stroke-width="1.5"></path><path d="M68.98 405.02L58.26 647.66" stroke="#132e65" stroke-width="1.5"></path><path d="M61.39 545.31L61.39 545.31" stroke="#132e65" stroke-width="1.5"></path><path d="M61.39 545.31L58.26 647.66" stroke="#132e65" stroke-width="1.5"></path><path d="M61.39 545.31L222 515" stroke="#132e65" stroke-width="1.5"></path><path d="M61.39 545.31L216.96 692.12" stroke="#132e65" stroke-width="1.5"></path><path d="M58.26 647.66L58.26 647.66" stroke="#132e65" stroke-width="1.5"></path><path d="M237.56 353.57L237.56 353.57" stroke="#132e65" stroke-width="1.5"></path><path d="M237.56 353.57L222 515" stroke="#132e65" stroke-width="1.5"></path><path d="M237.56 353.57L405.67 378.42" stroke="#132e65" stroke-width="1.5"></path><path d="M237.56 353.57L61.39 545.31" stroke="#132e65" stroke-width="1.5"></path><path d="M237.56 353.57L516.53 362.78" stroke="#132e65" stroke-width="1.5"></path><path d="M222 515L222 515" stroke="#132e65" stroke-width="1.5"></path><path d="M222 515L216.96 692.12" stroke="#132e65" stroke-width="1.5"></path><path d="M222 515L348.16 676.43" stroke="#132e65" stroke-width="1.5"></path><path d="M222 515L58.26 647.66" stroke="#132e65" stroke-width="1.5"></path><path d="M216.96 692.12L216.96 692.12" stroke="#132e65" stroke-width="1.5"></path><path d="M216.96 692.12L348.16 676.43" stroke="#132e65" stroke-width="1.5"></path><path d="M216.96 692.12L58.26 647.66" stroke="#132e65" stroke-width="1.5"></path><path d="M216.96 692.12L519.01 679.93" stroke="#132e65" stroke-width="1.5"></path><path d="M405.67 378.42L405.67 378.42" stroke="#132e65" stroke-width="1.5"></path><path d="M405.67 378.42L516.53 362.78" stroke="#132e65" stroke-width="1.5"></path><path d="M405.67 378.42L222 515" stroke="#132e65" stroke-width="1.5"></path><path d="M405.67 378.42L670.59 408.99" stroke="#132e65" stroke-width="1.5"></path><path d="M405.67 378.42L348.16 676.43" stroke="#132e65" stroke-width="1.5"></path><path d="M405.67 378.42L519.01 679.93" stroke="#132e65" stroke-width="1.5"></path><path d="M348.16 676.43L348.16 676.43" stroke="#132e65" stroke-width="1.5"></path><path d="M348.16 676.43L519.01 679.93" stroke="#132e65" stroke-width="1.5"></path><path d="M348.16 676.43L58.26 647.66" stroke="#132e65" stroke-width="1.5"></path><path d="M516.53 362.78L516.53 362.78" stroke="#132e65" stroke-width="1.5"></path><path d="M516.53 362.78L670.59 408.99" stroke="#132e65" stroke-width="1.5"></path><path d="M516.53 362.78L710.6 489.25" stroke="#132e65" stroke-width="1.5"></path><path d="M519.01 679.93L519.01 679.93" stroke="#132e65" stroke-width="1.5"></path><path d="M519.01 679.93L705.42 699.1" stroke="#132e65" stroke-width="1.5"></path><path d="M519.01 679.93L710.6 489.25" stroke="#132e65" stroke-width="1.5"></path><path d="M670.59 408.99L670.59 408.99" stroke="#132e65" stroke-width="1.5"></path><path d="M670.59 408.99L710.6 489.25" stroke="#132e65" stroke-width="1.5"></path><path d="M670.59 408.99L802.08 510.13" stroke="#132e65" stroke-width="1.5"></path><path d="M670.59 408.99L839.94 343.33" stroke="#132e65" stroke-width="1.5"></path><path d="M710.6 489.25L710.6 489.25" stroke="#132e65" stroke-width="1.5"></path><path d="M710.6 489.25L802.08 510.13" stroke="#132e65" stroke-width="1.5"></path><path d="M710.6 489.25L839.94 343.33" stroke="#132e65" stroke-width="1.5"></path><path d="M705.42 699.1L705.42 699.1" stroke="#132e65" stroke-width="1.5"></path><path d="M705.42 699.1L710.6 489.25" stroke="#132e65" stroke-width="1.5"></path><path d="M705.42 699.1L802.08 510.13" stroke="#132e65" stroke-width="1.5"></path><path d="M705.42 699.1L983.97 710.67" stroke="#132e65" stroke-width="1.5"></path><path d="M799.62 228.47L799.62 228.47" stroke="#132e65" stroke-width="1.5"></path><path d="M799.62 228.47L839.94 343.33" stroke="#132e65" stroke-width="1.5"></path><path d="M799.62 228.47L968.07 233.02" stroke="#132e65" stroke-width="1.5"></path><path d="M799.62 228.47L943.59 73.71" stroke="#132e65" stroke-width="1.5"></path><path d="M839.94 343.33L839.94 343.33" stroke="#132e65" stroke-width="1.5"></path><path d="M839.94 343.33L968.07 233.02" stroke="#132e65" stroke-width="1.5"></path><path d="M839.94 343.33L995.89 409.48" stroke="#132e65" stroke-width="1.5"></path><path d="M839.94 343.33L802.08 510.13" stroke="#132e65" stroke-width="1.5"></path><path d="M802.08 510.13L802.08 510.13" stroke="#132e65" stroke-width="1.5"></path><path d="M802.08 510.13L954.13 548.71" stroke="#132e65" stroke-width="1.5"></path><path d="M939.16 -71.03L939.16 -71.03" stroke="#132e65" stroke-width="1.5"></path><path d="M939.16 -71.03L943.59 73.71" stroke="#132e65" stroke-width="1.5"></path><path d="M939.16 -71.03L1149.4 -110.37" stroke="#132e65" stroke-width="1.5"></path><path d="M939.16 -71.03L1134.99 59.13" stroke="#132e65" stroke-width="1.5"></path><path d="M939.16 -71.03L968.07 233.02" stroke="#132e65" stroke-width="1.5"></path><path d="M939.16 -71.03L1265.04 -102.52" stroke="#132e65" stroke-width="1.5"></path><path d="M943.59 73.71L943.59 73.71" stroke="#132e65" stroke-width="1.5"></path><path d="M943.59 73.71L968.07 233.02" stroke="#132e65" stroke-width="1.5"></path><path d="M943.59 73.71L1134.99 59.13" stroke="#132e65" stroke-width="1.5"></path><path d="M943.59 73.71L1095.25 238.53" stroke="#132e65" stroke-width="1.5"></path><path d="M968.07 233.02L968.07 233.02" stroke="#132e65" stroke-width="1.5"></path><path d="M968.07 233.02L1095.25 238.53" stroke="#132e65" stroke-width="1.5"></path><path d="M968.07 233.02L995.89 409.48" stroke="#132e65" stroke-width="1.5"></path><path d="M968.07 233.02L1149.16 375.88" stroke="#132e65" stroke-width="1.5"></path><path d="M995.89 409.48L995.89 409.48" stroke="#132e65" stroke-width="1.5"></path><path d="M995.89 409.48L954.13 548.71" stroke="#132e65" stroke-width="1.5"></path><path d="M995.89 409.48L1149.16 375.88" stroke="#132e65" stroke-width="1.5"></path><path d="M954.13 548.71L954.13 548.71" stroke="#132e65" stroke-width="1.5"></path><path d="M954.13 548.71L983.97 710.67" stroke="#132e65" stroke-width="1.5"></path><path d="M983.97 710.67L983.97 710.67" stroke="#132e65" stroke-width="1.5"></path><path d="M983.97 710.67L1123.12 691.49" stroke="#132e65" stroke-width="1.5"></path><path d="M983.97 710.67L1146.39 497.25" stroke="#132e65" stroke-width="1.5"></path><path d="M983.97 710.67L802.08 510.13" stroke="#132e65" stroke-width="1.5"></path><path d="M1149.4 -110.37L1149.4 -110.37" stroke="#132e65" stroke-width="1.5"></path><path d="M1149.4 -110.37L1265.04 -102.52" stroke="#132e65" stroke-width="1.5"></path><path d="M1149.4 -110.37L1134.99 59.13" stroke="#132e65" stroke-width="1.5"></path><path d="M1149.4 -110.37L1259.06 70.96" stroke="#132e65" stroke-width="1.5"></path><path d="M1134.99 59.13L1134.99 59.13" stroke="#132e65" stroke-width="1.5"></path><path d="M1134.99 59.13L1259.06 70.96" stroke="#132e65" stroke-width="1.5"></path><path d="M1134.99 59.13L1095.25 238.53" stroke="#132e65" stroke-width="1.5"></path><path d="M1095.25 238.53L1095.25 238.53" stroke="#132e65" stroke-width="1.5"></path><path d="M1095.25 238.53L1149.16 375.88" stroke="#132e65" stroke-width="1.5"></path><path d="M1095.25 238.53L1275.78 209.84" stroke="#132e65" stroke-width="1.5"></path><path d="M1095.25 238.53L995.89 409.48" stroke="#132e65" stroke-width="1.5"></path><path d="M1095.25 238.53L1292.19 343.31" stroke="#132e65" stroke-width="1.5"></path><path d="M1149.16 375.88L1149.16 375.88" stroke="#132e65" stroke-width="1.5"></path><path d="M1149.16 375.88L1146.39 497.25" stroke="#132e65" stroke-width="1.5"></path><path d="M1149.16 375.88L1292.19 343.31" stroke="#132e65" stroke-width="1.5"></path><path d="M1146.39 497.25L1146.39 497.25" stroke="#132e65" stroke-width="1.5"></path><path d="M1146.39 497.25L1309.86 541.67" stroke="#132e65" stroke-width="1.5"></path><path d="M1146.39 497.25L995.89 409.48" stroke="#132e65" stroke-width="1.5"></path><path d="M1123.12 691.49L1123.12 691.49" stroke="#132e65" stroke-width="1.5"></path><path d="M1123.12 691.49L1293.76 666.04" stroke="#132e65" stroke-width="1.5"></path><path d="M1123.12 691.49L1146.39 497.25" stroke="#132e65" stroke-width="1.5"></path><path d="M1123.12 691.49L954.13 548.71" stroke="#132e65" stroke-width="1.5"></path><path d="M1123.12 691.49L1309.86 541.67" stroke="#132e65" stroke-width="1.5"></path><path d="M1123.12 691.49L1422.46 699.64" stroke="#132e65" stroke-width="1.5"></path><path d="M1265.04 -102.52L1265.04 -102.52" stroke="#132e65" stroke-width="1.5"></path><path d="M1265.04 -102.52L1420.41 -104.15" stroke="#132e65" stroke-width="1.5"></path><path d="M1259.06 70.96L1259.06 70.96" stroke="#132e65" stroke-width="1.5"></path><path d="M1259.06 70.96L1389.47 87.01" stroke="#132e65" stroke-width="1.5"></path><path d="M1259.06 70.96L1275.78 209.84" stroke="#132e65" stroke-width="1.5"></path><path d="M1275.78 209.84L1275.78 209.84" stroke="#132e65" stroke-width="1.5"></path><path d="M1275.78 209.84L1292.19 343.31" stroke="#132e65" stroke-width="1.5"></path><path d="M1292.19 343.31L1292.19 343.31" stroke="#132e65" stroke-width="1.5"></path><path d="M1292.19 343.31L1425.87 340.92" stroke="#132e65" stroke-width="1.5"></path><path d="M1309.86 541.67L1309.86 541.67" stroke="#132e65" stroke-width="1.5"></path><path d="M1309.86 541.67L1293.76 666.04" stroke="#132e65" stroke-width="1.5"></path><path d="M1309.86 541.67L1453.97 557.5" stroke="#132e65" stroke-width="1.5"></path><path d="M1293.76 666.04L1293.76 666.04" stroke="#132e65" stroke-width="1.5"></path><path d="M1293.76 666.04L1422.46 699.64" stroke="#132e65" stroke-width="1.5"></path><path d="M1293.76 666.04L1453.97 557.5" stroke="#132e65" stroke-width="1.5"></path><path d="M1293.76 666.04L1146.39 497.25" stroke="#132e65" stroke-width="1.5"></path><path d="M1293.76 666.04L1587.51 671.97" stroke="#132e65" stroke-width="1.5"></path><path d="M1420.41 -104.15L1420.41 -104.15" stroke="#132e65" stroke-width="1.5"></path><path d="M1420.41 -104.15L1595.86 -61.46" stroke="#132e65" stroke-width="1.5"></path><path d="M1389.47 87.01L1389.47 87.01" stroke="#132e65" stroke-width="1.5"></path><path d="M1389.47 87.01L1459.8 188.13" stroke="#132e65" stroke-width="1.5"></path><path d="M1389.47 87.01L1275.78 209.84" stroke="#132e65" stroke-width="1.5"></path><path d="M1389.47 87.01L1580.56 106.72" stroke="#132e65" stroke-width="1.5"></path><path d="M1389.47 87.01L1420.41 -104.15" stroke="#132e65" stroke-width="1.5"></path><path d="M1459.8 188.13L1459.8 188.13" stroke="#132e65" stroke-width="1.5"></path><path d="M1459.8 188.13L1571.49 197.01" stroke="#132e65" stroke-width="1.5"></path><path d="M1425.87 340.92L1425.87 340.92" stroke="#132e65" stroke-width="1.5"></path><path d="M1425.87 340.92L1459.8 188.13" stroke="#132e65" stroke-width="1.5"></path><path d="M1425.87 340.92L1593 388.98" stroke="#132e65" stroke-width="1.5"></path><path d="M1425.87 340.92L1275.78 209.84" stroke="#132e65" stroke-width="1.5"></path><path d="M1425.87 340.92L1571.49 197.01" stroke="#132e65" stroke-width="1.5"></path><path d="M1425.87 340.92L1453.97 557.5" stroke="#132e65" stroke-width="1.5"></path><path d="M1453.97 557.5L1453.97 557.5" stroke="#132e65" stroke-width="1.5"></path><path d="M1453.97 557.5L1584.07 521.89" stroke="#132e65" stroke-width="1.5"></path><path d="M1453.97 557.5L1422.46 699.64" stroke="#132e65" stroke-width="1.5"></path><path d="M1453.97 557.5L1587.51 671.97" stroke="#132e65" stroke-width="1.5"></path><path d="M1422.46 699.64L1422.46 699.64" stroke="#132e65" stroke-width="1.5"></path><path d="M1595.86 -61.46L1595.86 -61.46" stroke="#132e65" stroke-width="1.5"></path><path d="M1595.86 -61.46L1580.56 106.72" stroke="#132e65" stroke-width="1.5"></path><path d="M1595.86 -61.46L1389.47 87.01" stroke="#132e65" stroke-width="1.5"></path><path d="M1595.86 -61.46L1571.49 197.01" stroke="#132e65" stroke-width="1.5"></path><path d="M1595.86 -61.46L1459.8 188.13" stroke="#132e65" stroke-width="1.5"></path><path d="M1595.86 -61.46L1265.04 -102.52" stroke="#132e65" stroke-width="1.5"></path><path d="M1580.56 106.72L1580.56 106.72" stroke="#132e65" stroke-width="1.5"></path><path d="M1580.56 106.72L1571.49 197.01" stroke="#132e65" stroke-width="1.5"></path><path d="M1580.56 106.72L1459.8 188.13" stroke="#132e65" stroke-width="1.5"></path><path d="M1580.56 106.72L1420.41 -104.15" stroke="#132e65" stroke-width="1.5"></path><path d="M1580.56 106.72L1425.87 340.92" stroke="#132e65" stroke-width="1.5"></path><path d="M1571.49 197.01L1571.49 197.01" stroke="#132e65" stroke-width="1.5"></path><path d="M1571.49 197.01L1593 388.98" stroke="#132e65" stroke-width="1.5"></path><path d="M1593 388.98L1593 388.98" stroke="#132e65" stroke-width="1.5"></path><path d="M1593 388.98L1584.07 521.89" stroke="#132e65" stroke-width="1.5"></path><path d="M1593 388.98L1453.97 557.5" stroke="#132e65" stroke-width="1.5"></path><path d="M1593 388.98L1459.8 188.13" stroke="#132e65" stroke-width="1.5"></path><path d="M1584.07 521.89L1584.07 521.89" stroke="#132e65" stroke-width="1.5"></path><path d="M1587.51 671.97L1587.51 671.97" stroke="#132e65" stroke-width="1.5"></path><path d="M1587.51 671.97L1584.07 521.89" stroke="#132e65" stroke-width="1.5"></path><path d="M1587.51 671.97L1422.46 699.64" stroke="#132e65" stroke-width="1.5"></path><path d="M1587.51 671.97L1593 388.98" stroke="#132e65" stroke-width="1.5"></path><path d="M1587.51 671.97L1309.86 541.67" stroke="#132e65" stroke-width="1.5"></path><circle r="5" cx="-86.13" cy="385.09" fill="#132e65"></circle><circle r="5" cx="-61.68" cy="501.52" fill="#132e65"></circle><circle r="5" cx="-87.55" cy="669.04" fill="#132e65"></circle><circle r="5" cx="68.98" cy="405.02" fill="#132e65"></circle><circle r="5" cx="61.39" cy="545.31" fill="#132e65"></circle><circle r="5" cx="58.26" cy="647.66" fill="#132e65"></circle><circle r="5" cx="237.56" cy="353.57" fill="#132e65"></circle><circle r="5" cx="222" cy="515" fill="#132e65"></circle><circle r="5" cx="216.96" cy="692.12" fill="#132e65"></circle><circle r="5" cx="405.67" cy="378.42" fill="#132e65"></circle><circle r="5" cx="348.16" cy="676.43" fill="#132e65"></circle><circle r="5" cx="516.53" cy="362.78" fill="#132e65"></circle><circle r="5" cx="519.01" cy="679.93" fill="#132e65"></circle><circle r="5" cx="670.59" cy="408.99" fill="#132e65"></circle><circle r="5" cx="710.6" cy="489.25" fill="#132e65"></circle><circle r="5" cx="705.42" cy="699.1" fill="#132e65"></circle><circle r="5" cx="799.62" cy="228.47" fill="#132e65"></circle><circle r="5" cx="839.94" cy="343.33" fill="#132e65"></circle><circle r="5" cx="802.08" cy="510.13" fill="#132e65"></circle><circle r="5" cx="939.16" cy="-71.03" fill="#132e65"></circle><circle r="5" cx="943.59" cy="73.71" fill="#132e65"></circle><circle r="5" cx="968.07" cy="233.02" fill="#132e65"></circle><circle r="5" cx="995.89" cy="409.48" fill="#132e65"></circle><circle r="5" cx="954.13" cy="548.71" fill="#132e65"></circle><circle r="5" cx="983.97" cy="710.67" fill="#132e65"></circle><circle r="5" cx="1149.4" cy="-110.37" fill="#132e65"></circle><circle r="5" cx="1134.99" cy="59.13" fill="#132e65"></circle><circle r="5" cx="1095.25" cy="238.53" fill="#132e65"></circle><circle r="5" cx="1149.16" cy="375.88" fill="#132e65"></circle><circle r="5" cx="1146.39" cy="497.25" fill="#132e65"></circle><circle r="5" cx="1123.12" cy="691.49" fill="#132e65"></circle><circle r="5" cx="1265.04" cy="-102.52" fill="#132e65"></circle><circle r="5" cx="1259.06" cy="70.96" fill="#132e65"></circle><circle r="5" cx="1275.78" cy="209.84" fill="#132e65"></circle><circle r="5" cx="1292.19" cy="343.31" fill="#132e65"></circle><circle r="5" cx="1309.86" cy="541.67" fill="#132e65"></circle><circle r="5" cx="1293.76" cy="666.04" fill="#132e65"></circle><circle r="5" cx="1420.41" cy="-104.15" fill="#132e65"></circle><circle r="5" cx="1389.47" cy="87.01" fill="#132e65"></circle><circle r="5" cx="1459.8" cy="188.13" fill="#132e65"></circle><circle r="5" cx="1425.87" cy="340.92" fill="#132e65"></circle><circle r="5" cx="1453.97" cy="557.5" fill="#132e65"></circle><circle r="5" cx="1422.46" cy="699.64" fill="#132e65"></circle><circle r="5" cx="1595.86" cy="-61.46" fill="#132e65"></circle><circle r="5" cx="1580.56" cy="106.72" fill="#132e65"></circle><circle r="5" cx="1571.49" cy="197.01" fill="#132e65"></circle><circle r="5" cx="1593" cy="388.98" fill="#132e65"></circle><circle r="5" cx="1584.07" cy="521.89" fill="#132e65"></circle><circle r="5" cx="1587.51" cy="671.97" fill="#132e65"></circle><path d="M-85.36 700.89L-85.36 700.89" stroke="hsl(228.5, 77.2%, 51.5%)" stroke-width="1.5"></path><path d="M-85.36 700.89L48.1 673.63" stroke="hsl(228.5, 77.2%, 51.5%)" stroke-width="1.5"></path><path d="M-85.36 700.89L-93.11 542.02" stroke="hsl(228.5, 77.2%, 51.5%)" stroke-width="1.5"></path><path d="M-85.36 700.89L111.54 503.74" stroke="hsl(228.5, 77.2%, 51.5%)" stroke-width="1.5"></path><path d="M-85.36 700.89L223.35 696.9" stroke="hsl(228.5, 77.2%, 51.5%)" stroke-width="1.5"></path><path d="M-85.36 700.89L198.47 503.24" stroke="hsl(228.5, 77.2%, 51.5%)" stroke-width="1.5"></path><path d="M-85.36 700.89L393.22 712.07" stroke="hsl(228.5, 77.2%, 51.5%)" stroke-width="1.5"></path><path d="M48.1 673.63L48.1 673.63" stroke="hsl(228.5, 77.2%, 51.5%)" stroke-width="1.5"></path><path d="M48.1 673.63L223.35 696.9" stroke="hsl(228.5, 77.2%, 51.5%)" stroke-width="1.5"></path><path d="M48.1 673.63L111.54 503.74" stroke="hsl(228.5, 77.2%, 51.5%)" stroke-width="1.5"></path><path d="M48.1 673.63L-93.11 542.02" stroke="hsl(228.5, 77.2%, 51.5%)" stroke-width="1.5"></path><path d="M48.1 673.63L198.47 503.24" stroke="hsl(228.5, 77.2%, 51.5%)" stroke-width="1.5"></path><path d="M48.1 673.63L393.22 712.07" stroke="hsl(228.5, 77.2%, 51.5%)" stroke-width="1.5"></path><path d="M393.22 712.07L393.22 712.07" stroke="hsl(228.5, 77.2%, 51.5%)" stroke-width="1.5"></path><path d="M393.22 712.07L540.6 664.96" stroke="hsl(228.5, 77.2%, 51.5%)" stroke-width="1.5"></path><path d="M393.22 712.07L223.35 696.9" stroke="hsl(228.5, 77.2%, 51.5%)" stroke-width="1.5"></path><path d="M393.22 712.07L390.58 539.37" stroke="hsl(228.5, 77.2%, 51.5%)" stroke-width="1.5"></path><path d="M654.2 521.85L654.2 521.85" stroke="hsl(228.5, 77.2%, 51.5%)" stroke-width="1.5"></path><path d="M654.2 521.85L534.09 491.62" stroke="hsl(228.5, 77.2%, 51.5%)" stroke-width="1.5"></path><path d="M654.2 521.85L668.29 385.88" stroke="hsl(228.5, 77.2%, 51.5%)" stroke-width="1.5"></path><path d="M654.2 521.85L540.6 664.96" stroke="hsl(228.5, 77.2%, 51.5%)" stroke-width="1.5"></path><path d="M654.2 521.85L681.01 704.05" stroke="hsl(228.5, 77.2%, 51.5%)" stroke-width="1.5"></path><path d="M654.2 521.85L845.15 530.09" stroke="hsl(228.5, 77.2%, 51.5%)" stroke-width="1.5"></path><path d="M654.2 521.85L811.64 400.96" stroke="hsl(228.5, 77.2%, 51.5%)" stroke-width="1.5"></path><path d="M811.64 400.96L811.64 400.96" stroke="hsl(228.5, 77.2%, 51.5%)" stroke-width="1.5"></path><path d="M811.64 400.96L845.15 530.09" stroke="hsl(228.5, 77.2%, 51.5%)" stroke-width="1.5"></path><path d="M811.64 400.96L668.29 385.88" stroke="hsl(228.5, 77.2%, 51.5%)" stroke-width="1.5"></path><path d="M811.64 400.96L996.55 410.74" stroke="hsl(228.5, 77.2%, 51.5%)" stroke-width="1.5"></path><path d="M811.64 400.96L945.75 544.08" stroke="hsl(228.5, 77.2%, 51.5%)" stroke-width="1.5"></path><path d="M845.15 530.09L845.15 530.09" stroke="hsl(228.5, 77.2%, 51.5%)" stroke-width="1.5"></path><path d="M845.15 530.09L945.75 544.08" stroke="hsl(228.5, 77.2%, 51.5%)" stroke-width="1.5"></path><path d="M845.15 530.09L826.78 652.76" stroke="hsl(228.5, 77.2%, 51.5%)" stroke-width="1.5"></path><path d="M1112.53 553.12L1112.53 553.12" stroke="hsl(228.5, 77.2%, 51.5%)" stroke-width="1.5"></path><path d="M1112.53 553.12L1157.17 700.66" stroke="hsl(228.5, 77.2%, 51.5%)" stroke-width="1.5"></path><path d="M1112.53 553.12L945.75 544.08" stroke="hsl(228.5, 77.2%, 51.5%)" stroke-width="1.5"></path><path d="M1112.53 553.12L1276.85 517.73" stroke="hsl(228.5, 77.2%, 51.5%)" stroke-width="1.5"></path><path d="M1112.53 553.12L1132.02 380.04" stroke="hsl(228.5, 77.2%, 51.5%)" stroke-width="1.5"></path><path d="M1241.89 -54.51L1241.89 -54.51" stroke="hsl(228.5, 77.2%, 51.5%)" stroke-width="1.5"></path><path d="M1241.89 -54.51L1271.57 96.2" stroke="hsl(228.5, 77.2%, 51.5%)" stroke-width="1.5"></path><path d="M1241.89 -54.51L1441.81 -60.8" stroke="hsl(228.5, 77.2%, 51.5%)" stroke-width="1.5"></path><path d="M-93.11 542.02L-93.11 542.02" stroke="hsl(228.5, 77.2%, 51.5%)" stroke-width="1.5"></path><path d="M-93.11 542.02L111.54 503.74" stroke="hsl(228.5, 77.2%, 51.5%)" stroke-width="1.5"></path><path d="M-93.11 542.02L198.47 503.24" stroke="hsl(228.5, 77.2%, 51.5%)" stroke-width="1.5"></path><path d="M111.54 503.74L111.54 503.74" stroke="hsl(228.5, 77.2%, 51.5%)" stroke-width="1.5"></path><path d="M111.54 503.74L198.47 503.24" stroke="hsl(228.5, 77.2%, 51.5%)" stroke-width="1.5"></path><path d="M198.47 503.24L198.47 503.24" stroke="hsl(228.5, 77.2%, 51.5%)" stroke-width="1.5"></path><path d="M198.47 503.24L223.35 696.9" stroke="hsl(228.5, 77.2%, 51.5%)" stroke-width="1.5"></path><path d="M198.47 503.24L390.58 539.37" stroke="hsl(228.5, 77.2%, 51.5%)" stroke-width="1.5"></path><path d="M198.47 503.24L393.22 712.07" stroke="hsl(228.5, 77.2%, 51.5%)" stroke-width="1.5"></path><path d="M223.35 696.9L223.35 696.9" stroke="hsl(228.5, 77.2%, 51.5%)" stroke-width="1.5"></path><path d="M223.35 696.9L111.54 503.74" stroke="hsl(228.5, 77.2%, 51.5%)" stroke-width="1.5"></path><path d="M223.35 696.9L390.58 539.37" stroke="hsl(228.5, 77.2%, 51.5%)" stroke-width="1.5"></path><path d="M390.58 539.37L390.58 539.37" stroke="hsl(228.5, 77.2%, 51.5%)" stroke-width="1.5"></path><path d="M390.58 539.37L534.09 491.62" stroke="hsl(228.5, 77.2%, 51.5%)" stroke-width="1.5"></path><path d="M534.09 491.62L534.09 491.62" stroke="hsl(228.5, 77.2%, 51.5%)" stroke-width="1.5"></path><path d="M534.09 491.62L668.29 385.88" stroke="hsl(228.5, 77.2%, 51.5%)" stroke-width="1.5"></path><path d="M534.09 491.62L540.6 664.96" stroke="hsl(228.5, 77.2%, 51.5%)" stroke-width="1.5"></path><path d="M534.09 491.62L681.01 704.05" stroke="hsl(228.5, 77.2%, 51.5%)" stroke-width="1.5"></path><path d="M540.6 664.96L540.6 664.96" stroke="hsl(228.5, 77.2%, 51.5%)" stroke-width="1.5"></path><path d="M540.6 664.96L681.01 704.05" stroke="hsl(228.5, 77.2%, 51.5%)" stroke-width="1.5"></path><path d="M668.29 385.88L668.29 385.88" stroke="hsl(228.5, 77.2%, 51.5%)" stroke-width="1.5"></path><path d="M668.29 385.88L845.15 530.09" stroke="hsl(228.5, 77.2%, 51.5%)" stroke-width="1.5"></path><path d="M668.29 385.88L540.6 664.96" stroke="hsl(228.5, 77.2%, 51.5%)" stroke-width="1.5"></path><path d="M681.01 704.05L681.01 704.05" stroke="hsl(228.5, 77.2%, 51.5%)" stroke-width="1.5"></path><path d="M681.01 704.05L826.78 652.76" stroke="hsl(228.5, 77.2%, 51.5%)" stroke-width="1.5"></path><path d="M826.78 652.76L826.78 652.76" stroke="hsl(228.5, 77.2%, 51.5%)" stroke-width="1.5"></path><path d="M826.78 652.76L954.24 712.02" stroke="hsl(228.5, 77.2%, 51.5%)" stroke-width="1.5"></path><path d="M826.78 652.76L945.75 544.08" stroke="hsl(228.5, 77.2%, 51.5%)" stroke-width="1.5"></path><path d="M996.55 410.74L996.55 410.74" stroke="hsl(228.5, 77.2%, 51.5%)" stroke-width="1.5"></path><path d="M996.55 410.74L1132.02 380.04" stroke="hsl(228.5, 77.2%, 51.5%)" stroke-width="1.5"></path><path d="M996.55 410.74L945.75 544.08" stroke="hsl(228.5, 77.2%, 51.5%)" stroke-width="1.5"></path><path d="M996.55 410.74L1112.53 553.12" stroke="hsl(228.5, 77.2%, 51.5%)" stroke-width="1.5"></path><path d="M945.75 544.08L945.75 544.08" stroke="hsl(228.5, 77.2%, 51.5%)" stroke-width="1.5"></path><path d="M945.75 544.08L954.24 712.02" stroke="hsl(228.5, 77.2%, 51.5%)" stroke-width="1.5"></path><path d="M954.24 712.02L954.24 712.02" stroke="hsl(228.5, 77.2%, 51.5%)" stroke-width="1.5"></path><path d="M954.24 712.02L1157.17 700.66" stroke="hsl(228.5, 77.2%, 51.5%)" stroke-width="1.5"></path><path d="M954.24 712.02L845.15 530.09" stroke="hsl(228.5, 77.2%, 51.5%)" stroke-width="1.5"></path><path d="M954.24 712.02L1112.53 553.12" stroke="hsl(228.5, 77.2%, 51.5%)" stroke-width="1.5"></path><path d="M1091.61 192.6L1091.61 192.6" stroke="hsl(228.5, 77.2%, 51.5%)" stroke-width="1.5"></path><path d="M1091.61 192.6L1132.02 380.04" stroke="hsl(228.5, 77.2%, 51.5%)" stroke-width="1.5"></path><path d="M1091.61 192.6L1293.22 192.86" stroke="hsl(228.5, 77.2%, 51.5%)" stroke-width="1.5"></path><path d="M1091.61 192.6L1271.57 96.2" stroke="hsl(228.5, 77.2%, 51.5%)" stroke-width="1.5"></path><path d="M1091.61 192.6L996.55 410.74" stroke="hsl(228.5, 77.2%, 51.5%)" stroke-width="1.5"></path><path d="M1091.61 192.6L1241.89 -54.51" stroke="hsl(228.5, 77.2%, 51.5%)" stroke-width="1.5"></path><path d="M1132.02 380.04L1132.02 380.04" stroke="hsl(228.5, 77.2%, 51.5%)" stroke-width="1.5"></path><path d="M1132.02 380.04L1276.85 517.73" stroke="hsl(228.5, 77.2%, 51.5%)" stroke-width="1.5"></path><path d="M1157.17 700.66L1157.17 700.66" stroke="hsl(228.5, 77.2%, 51.5%)" stroke-width="1.5"></path><path d="M1157.17 700.66L1242.47 675.62" stroke="hsl(228.5, 77.2%, 51.5%)" stroke-width="1.5"></path><path d="M1271.57 96.2L1271.57 96.2" stroke="hsl(228.5, 77.2%, 51.5%)" stroke-width="1.5"></path><path d="M1271.57 96.2L1293.22 192.86" stroke="hsl(228.5, 77.2%, 51.5%)" stroke-width="1.5"></path><path d="M1271.57 96.2L1409.1 76.61" stroke="hsl(228.5, 77.2%, 51.5%)" stroke-width="1.5"></path><path d="M1293.22 192.86L1293.22 192.86" stroke="hsl(228.5, 77.2%, 51.5%)" stroke-width="1.5"></path><path d="M1293.22 192.86L1407.46 255.27" stroke="hsl(228.5, 77.2%, 51.5%)" stroke-width="1.5"></path><path d="M1293.22 192.86L1409.1 76.61" stroke="hsl(228.5, 77.2%, 51.5%)" stroke-width="1.5"></path><path d="M1293.22 192.86L1400.56 344.93" stroke="hsl(228.5, 77.2%, 51.5%)" stroke-width="1.5"></path><path d="M1276.85 517.73L1276.85 517.73" stroke="hsl(228.5, 77.2%, 51.5%)" stroke-width="1.5"></path><path d="M1276.85 517.73L1242.47 675.62" stroke="hsl(228.5, 77.2%, 51.5%)" stroke-width="1.5"></path><path d="M1276.85 517.73L1447.55 560.39" stroke="hsl(228.5, 77.2%, 51.5%)" stroke-width="1.5"></path><path d="M1242.47 675.62L1242.47 675.62" stroke="hsl(228.5, 77.2%, 51.5%)" stroke-width="1.5"></path><path d="M1242.47 675.62L1408.95 694.96" stroke="hsl(228.5, 77.2%, 51.5%)" stroke-width="1.5"></path><path d="M1242.47 675.62L1112.53 553.12" stroke="hsl(228.5, 77.2%, 51.5%)" stroke-width="1.5"></path><path d="M1242.47 675.62L1447.55 560.39" stroke="hsl(228.5, 77.2%, 51.5%)" stroke-width="1.5"></path><path d="M1242.47 675.62L954.24 712.02" stroke="hsl(228.5, 77.2%, 51.5%)" stroke-width="1.5"></path><path d="M1441.81 -60.8L1441.81 -60.8" stroke="hsl(228.5, 77.2%, 51.5%)" stroke-width="1.5"></path><path d="M1441.81 -60.8L1554.93 -59.2" stroke="hsl(228.5, 77.2%, 51.5%)" stroke-width="1.5"></path><path d="M1441.81 -60.8L1409.1 76.61" stroke="hsl(228.5, 77.2%, 51.5%)" stroke-width="1.5"></path><path d="M1441.81 -60.8L1546.95 68.8" stroke="hsl(228.5, 77.2%, 51.5%)" stroke-width="1.5"></path><path d="M1441.81 -60.8L1271.57 96.2" stroke="hsl(228.5, 77.2%, 51.5%)" stroke-width="1.5"></path><path d="M1409.1 76.61L1409.1 76.61" stroke="hsl(228.5, 77.2%, 51.5%)" stroke-width="1.5"></path><path d="M1409.1 76.61L1546.95 68.8" stroke="hsl(228.5, 77.2%, 51.5%)" stroke-width="1.5"></path><path d="M1407.46 255.27L1407.46 255.27" stroke="hsl(228.5, 77.2%, 51.5%)" stroke-width="1.5"></path><path d="M1407.46 255.27L1400.56 344.93" stroke="hsl(228.5, 77.2%, 51.5%)" stroke-width="1.5"></path><path d="M1407.46 255.27L1544.53 236.84" stroke="hsl(228.5, 77.2%, 51.5%)" stroke-width="1.5"></path><path d="M1407.46 255.27L1409.1 76.61" stroke="hsl(228.5, 77.2%, 51.5%)" stroke-width="1.5"></path><path d="M1407.46 255.27L1271.57 96.2" stroke="hsl(228.5, 77.2%, 51.5%)" stroke-width="1.5"></path><path d="M1400.56 344.93L1400.56 344.93" stroke="hsl(228.5, 77.2%, 51.5%)" stroke-width="1.5"></path><path d="M1400.56 344.93L1544.53 236.84" stroke="hsl(228.5, 77.2%, 51.5%)" stroke-width="1.5"></path><path d="M1400.56 344.93L1605.41 346.77" stroke="hsl(228.5, 77.2%, 51.5%)" stroke-width="1.5"></path><path d="M1447.55 560.39L1447.55 560.39" stroke="hsl(228.5, 77.2%, 51.5%)" stroke-width="1.5"></path><path d="M1447.55 560.39L1553.32 560.11" stroke="hsl(228.5, 77.2%, 51.5%)" stroke-width="1.5"></path><path d="M1447.55 560.39L1408.95 694.96" stroke="hsl(228.5, 77.2%, 51.5%)" stroke-width="1.5"></path><path d="M1447.55 560.39L1571.54 643" stroke="hsl(228.5, 77.2%, 51.5%)" stroke-width="1.5"></path><path d="M1408.95 694.96L1408.95 694.96" stroke="hsl(228.5, 77.2%, 51.5%)" stroke-width="1.5"></path><path d="M1554.93 -59.2L1554.93 -59.2" stroke="hsl(228.5, 77.2%, 51.5%)" stroke-width="1.5"></path><path d="M1554.93 -59.2L1546.95 68.8" stroke="hsl(228.5, 77.2%, 51.5%)" stroke-width="1.5"></path><path d="M1554.93 -59.2L1409.1 76.61" stroke="hsl(228.5, 77.2%, 51.5%)" stroke-width="1.5"></path><path d="M1554.93 -59.2L1544.53 236.84" stroke="hsl(228.5, 77.2%, 51.5%)" stroke-width="1.5"></path><path d="M1546.95 68.8L1546.95 68.8" stroke="hsl(228.5, 77.2%, 51.5%)" stroke-width="1.5"></path><path d="M1546.95 68.8L1544.53 236.84" stroke="hsl(228.5, 77.2%, 51.5%)" stroke-width="1.5"></path><path d="M1546.95 68.8L1407.46 255.27" stroke="hsl(228.5, 77.2%, 51.5%)" stroke-width="1.5"></path><path d="M1544.53 236.84L1544.53 236.84" stroke="hsl(228.5, 77.2%, 51.5%)" stroke-width="1.5"></path><path d="M1544.53 236.84L1605.41 346.77" stroke="hsl(228.5, 77.2%, 51.5%)" stroke-width="1.5"></path><path d="M1605.41 346.77L1605.41 346.77" stroke="hsl(228.5, 77.2%, 51.5%)" stroke-width="1.5"></path><path d="M1553.32 560.11L1553.32 560.11" stroke="hsl(228.5, 77.2%, 51.5%)" stroke-width="1.5"></path><path d="M1553.32 560.11L1571.54 643" stroke="hsl(228.5, 77.2%, 51.5%)" stroke-width="1.5"></path><path d="M1553.32 560.11L1408.95 694.96" stroke="hsl(228.5, 77.2%, 51.5%)" stroke-width="1.5"></path><path d="M1553.32 560.11L1605.41 346.77" stroke="hsl(228.5, 77.2%, 51.5%)" stroke-width="1.5"></path><path d="M1553.32 560.11L1400.56 344.93" stroke="hsl(228.5, 77.2%, 51.5%)" stroke-width="1.5"></path><path d="M1571.54 643L1571.54 643" stroke="hsl(228.5, 77.2%, 51.5%)" stroke-width="1.5"></path><path d="M1571.54 643L1408.95 694.96" stroke="hsl(228.5, 77.2%, 51.5%)" stroke-width="1.5"></path><circle r="25" cx="-85.36" cy="700.89" fill="url(#SvgjsRadialGradient1003)"></circle><circle r="25" cx="48.1" cy="673.63" fill="url(#SvgjsRadialGradient1003)"></circle><circle r="25" cx="393.22" cy="712.07" fill="url(#SvgjsRadialGradient1003)"></circle><circle r="25" cx="654.2" cy="521.85" fill="url(#SvgjsRadialGradient1003)"></circle><circle r="25" cx="811.64" cy="400.96" fill="url(#SvgjsRadialGradient1003)"></circle><circle r="25" cx="845.15" cy="530.09" fill="url(#SvgjsRadialGradient1003)"></circle><circle r="25" cx="1112.53" cy="553.12" fill="url(#SvgjsRadialGradient1003)"></circle><circle r="25" cx="1241.89" cy="-54.51" fill="url(#SvgjsRadialGradient1003)"></circle><circle r="5" cx="-93.11" cy="542.02" fill="#8b9ad9"></circle><circle r="5" cx="111.54" cy="503.74" fill="#8b9ad9"></circle><circle r="5" cx="198.47" cy="503.24" fill="#8b9ad9"></circle><circle r="5" cx="223.35" cy="696.9" fill="#8b9ad9"></circle><circle r="5" cx="390.58" cy="539.37" fill="#8b9ad9"></circle><circle r="5" cx="534.09" cy="491.62" fill="#8b9ad9"></circle><circle r="5" cx="540.6" cy="664.96" fill="#8b9ad9"></circle><circle r="5" cx="668.29" cy="385.88" fill="#8b9ad9"></circle><circle r="5" cx="681.01" cy="704.05" fill="#8b9ad9"></circle><circle r="5" cx="826.78" cy="652.76" fill="#8b9ad9"></circle><circle r="5" cx="996.55" cy="410.74" fill="#8b9ad9"></circle><circle r="5" cx="945.75" cy="544.08" fill="#8b9ad9"></circle><circle r="5" cx="954.24" cy="712.02" fill="#8b9ad9"></circle><circle r="5" cx="1091.61" cy="192.6" fill="#8b9ad9"></circle><circle r="5" cx="1132.02" cy="380.04" fill="#8b9ad9"></circle><circle r="5" cx="1157.17" cy="700.66" fill="#8b9ad9"></circle><circle r="5" cx="1271.57" cy="96.2" fill="#8b9ad9"></circle><circle r="5" cx="1293.22" cy="192.86" fill="#8b9ad9"></circle><circle r="5" cx="1276.85" cy="517.73" fill="#8b9ad9"></circle><circle r="5" cx="1242.47" cy="675.62" fill="#8b9ad9"></circle><circle r="5" cx="1441.81" cy="-60.8" fill="#8b9ad9"></circle><circle r="5" cx="1409.1" cy="76.61" fill="#8b9ad9"></circle><circle r="5" cx="1407.46" cy="255.27" fill="#8b9ad9"></circle><circle r="5" cx="1400.56" cy="344.93" fill="#8b9ad9"></circle><circle r="5" cx="1447.55" cy="560.39" fill="#8b9ad9"></circle><circle r="5" cx="1408.95" cy="694.96" fill="#8b9ad9"></circle><circle r="5" cx="1554.93" cy="-59.2" fill="#8b9ad9"></circle><circle r="5" cx="1546.95" cy="68.8" fill="#8b9ad9"></circle><circle r="5" cx="1544.53" cy="236.84" fill="#8b9ad9"></circle><circle r="5" cx="1605.41" cy="346.77" fill="#8b9ad9"></circle><circle r="5" cx="1553.32" cy="560.11" fill="#8b9ad9"></circle><circle r="5" cx="1571.54" cy="643" fill="#8b9ad9"></circle></g><defs><mask id="SvgjsMask1002"><rect width="1440" height="560" fill="#ffffff"></rect></mask><radialGradient id="SvgjsRadialGradient1003"><stop stop-color="#ffffff" offset="0.1"></stop><stop stop-color="#1735b3" offset="0.2"></stop><stop stop-color="rgba(23, 53, 179, 0)" offset="1"></stop></radialGradient></defs></svg>