<svg xmlns="http://www.w3.org/2000/svg" version="1.1" xmlns:xlink="http://www.w3.org/1999/xlink" xmlns:svgjs="http://svgjs.com/svgjs" width="1440" height="250" preserveAspectRatio="none" viewBox="0 0 1440 250"><g mask="url(&quot;#SvgjsMask1003&quot;)" fill="none"><path d="M29 250L279 0L577.5 0L327.5 250z" fill="url(#SvgjsLinearGradient1004)"></path><path d="M242.60000000000002 250L492.6 0L801.6 0L551.6 250z" fill="url(#SvgjsLinearGradient1004)"></path><path d="M503.20000000000005 250L753.2 0L1107.2 0L857.2 250z" fill="url(#SvgjsLinearGradient1004)"></path><path d="M734.8000000000001 250L984.8000000000001 0L1251.8000000000002 0L1001.8000000000001 250z" fill="url(#SvgjsLinearGradient1004)"></path><path d="M1427 250L1177 0L955 0L1205 250z" fill="url(#SvgjsLinearGradient1005)"></path><path d="M1163.4 250L913.4000000000001 0L730.4000000000001 0L980.4000000000001 250z" fill="url(#SvgjsLinearGradient1005)"></path><path d="M959.8 250L709.8 0L504.29999999999995 0L754.3 250z" fill="url(#SvgjsLinearGradient1005)"></path><path d="M693.1999999999999 250L443.19999999999993 0L116.19999999999993 0L366.19999999999993 250z" fill="url(#SvgjsLinearGradient1005)"></path><path d="M1190.3392899690584 250L1440 0.3392899690585125L1440 250z" fill="url(#SvgjsLinearGradient1004)"></path><path d="M0 250L249.6607100309415 250L 0 0.3392899690585125z" fill="url(#SvgjsLinearGradient1005)"></path></g><defs><mask id="SvgjsMask1003"><rect width="1440" height="250" fill="#ffffff"></rect></mask><linearGradient x1="0%" y1="100%" x2="100%" y2="0%" id="SvgjsLinearGradient1004"><stop stop-color="rgba(15, 70, 185, 0.2)" offset="0"></stop><stop stop-opacity="0" stop-color="rgba(15, 70, 185, 0.2)" offset="0.66"></stop></linearGradient><linearGradient x1="100%" y1="100%" x2="0%" y2="0%" id="SvgjsLinearGradient1005"><stop stop-color="rgba(15, 70, 185, 0.2)" offset="0"></stop><stop stop-opacity="0" stop-color="rgba(15, 70, 185, 0.2)" offset="0.66"></stop></linearGradient></defs></svg>