<?xml version="1.0" standalone="no"?>
<!DOCTYPE svg PUBLIC "-//W3C//DTD SVG 20010904//EN"
 "http://www.w3.org/TR/2001/REC-SVG-20010904/DTD/svg10.dtd">
<svg version="1.0" xmlns="http://www.w3.org/2000/svg"
 width="240.000000pt" height="240.000000pt" viewBox="0 0 240.000000 240.000000"
 preserveAspectRatio="xMidYMid meet">
<metadata>
Created by potrace 1.14, written by Peter Selinger 2001-2017
</metadata>
<g transform="translate(0.000000,240.000000) scale(0.100000,-0.100000)"
fill="#000000" stroke="none">
<path d="M740 2287 c-14 -8 -54 -32 -90 -54 -36 -22 -159 -99 -275 -171 -116
-72 -220 -140 -233 -152 -22 -20 -22 -24 -22 -285 0 -165 4 -273 11 -287 10
-24 86 -78 108 -78 6 0 11 -4 11 -8 0 -4 20 -18 45 -30 25 -12 45 -25 45 -29
0 -5 -39 -30 -87 -58 -144 -83 -133 -53 -133 -362 0 -225 2 -269 16 -291 20
-33 610 -382 645 -382 13 0 50 16 82 35 32 19 60 35 62 35 3 0 26 13 52 29 76
46 135 80 180 103 40 20 43 21 61 5 10 -9 22 -17 26 -17 5 0 28 -13 53 -30 24
-16 46 -30 49 -30 2 0 34 -18 70 -40 36 -22 70 -40 75 -40 5 0 9 -4 9 -8 0 -5
18 -15 40 -22 38 -13 43 -12 117 25 43 22 80 42 83 45 3 3 64 35 135 72 285
146 361 187 381 205 21 19 22 27 23 286 1 173 -3 274 -10 290 -7 15 -52 47
-120 86 -60 34 -109 64 -109 66 0 2 49 29 108 60 64 32 113 64 121 77 8 17 11
100 9 297 l-3 274 -24 16 c-13 9 -45 28 -70 42 -25 15 -78 45 -118 68 -39 22
-87 49 -105 60 -18 10 -104 60 -190 110 -86 50 -170 94 -186 97 -25 5 -57 -9
-188 -86 -229 -134 -202 -123 -249 -96 -22 13 -67 38 -100 56 -279 147 -261
140 -305 117z"/>
</g>
</svg>
